<svg xmlns="http://www.w3.org/2000/svg" viewBox="0 0 384 345" width="384" height="345">
  <g fill="#0aa6c3">
    <path d="M 220.00 228.00 L 220.00 246.00 L 221.00 247.00 L 221.00 250.00 L 222.00 251.00 L 222.00 252.00 L 223.00 253.00 L 223.00 254.00 L 224.00 255.00 L 224.00 256.00 L 225.00 257.00 L 225.00 258.00 L 226.00 259.00 L 227.00 259.00 L 229.00 261.00 L 231.00 261.00 L 232.00 262.00 L 234.00 262.00 L 235.00 261.00 L 236.00 261.00 L 239.00 258.00 L 239.00 257.00 L 240.00 256.00 L 240.00 254.00 L 239.00 253.00 L 239.00 247.00 L 238.00 246.00 L 238.00 245.00 L 236.00 243.00 L 236.00 242.00 L 233.00 239.00 L 233.00 238.00 L 231.00 236.00 L 230.00 236.00 L 225.00 231.00 L 225.00 230.00 L 224.00 230.00 L 222.00 228.00 Z"/>
    <path d="M 162.00 226.00 L 160.00 228.00 L 159.00 228.00 L 156.00 231.00 L 155.00 231.00 L 149.00 237.00 L 149.00 238.00 L 147.00 240.00 L 147.00 241.00 L 146.00 242.00 L 146.00 243.00 L 145.00 244.00 L 145.00 245.00 L 144.00 246.00 L 144.00 253.00 L 145.00 254.00 L 145.00 255.00 L 147.00 257.00 L 148.00 257.00 L 149.00 258.00 L 153.00 258.00 L 154.00 257.00 L 155.00 257.00 L 156.00 256.00 L 157.00 256.00 L 158.00 255.00 L 158.00 254.00 L 161.00 251.00 L 161.00 250.00 L 162.00 249.00 L 162.00 247.00 L 163.00 246.00 L 163.00 244.00 L 164.00 243.00 L 164.00 237.00 L 165.00 236.00 L 165.00 232.00 L 166.00 231.00 L 166.00 228.00 L 165.00 227.00 L 165.00 226.00 Z"/>
    <path d="M 268.00 185.00 L 267.00 186.00 L 259.00 186.00 L 258.00 187.00 L 256.00 187.00 L 256.00 190.00 L 260.00 194.00 L 261.00 194.00 L 263.00 196.00 L 264.00 196.00 L 266.00 198.00 L 267.00 198.00 L 268.00 199.00 L 269.00 199.00 L 270.00 200.00 L 271.00 200.00 L 272.00 201.00 L 273.00 201.00 L 274.00 202.00 L 279.00 202.00 L 280.00 203.00 L 282.00 203.00 L 283.00 202.00 L 287.00 202.00 L 289.00 200.00 L 289.00 198.00 L 290.00 197.00 L 290.00 192.00 L 289.00 191.00 L 289.00 190.00 L 288.00 189.00 L 287.00 189.00 L 286.00 188.00 L 285.00 188.00 L 284.00 187.00 L 283.00 187.00 L 282.00 186.00 L 281.00 186.00 L 280.00 185.00 Z"/>
    <path d="M 109.00 180.00 L 108.00 181.00 L 107.00 181.00 L 106.00 182.00 L 105.00 182.00 L 104.00 183.00 L 103.00 183.00 L 102.00 184.00 L 102.00 185.00 L 100.00 187.00 L 100.00 191.00 L 101.00 192.00 L 101.00 194.00 L 102.00 195.00 L 103.00 195.00 L 105.00 197.00 L 115.00 197.00 L 116.00 196.00 L 118.00 196.00 L 119.00 195.00 L 120.00 195.00 L 121.00 194.00 L 122.00 194.00 L 123.00 193.00 L 124.00 193.00 L 126.00 191.00 L 127.00 191.00 L 130.00 188.00 L 131.00 188.00 L 132.00 187.00 L 133.00 187.00 L 135.00 185.00 L 135.00 183.00 L 133.00 183.00 L 132.00 182.00 L 131.00 182.00 L 130.00 181.00 L 126.00 181.00 L 125.00 180.00 Z"/>
    <path d="M 194.00 158.00 L 193.00 159.00 L 189.00 159.00 L 187.00 161.00 L 186.00 161.00 L 184.00 163.00 L 184.00 164.00 L 182.00 166.00 L 182.00 169.00 L 181.00 170.00 L 181.00 176.00 L 182.00 177.00 L 182.00 179.00 L 185.00 182.00 L 185.00 183.00 L 186.00 184.00 L 187.00 184.00 L 189.00 186.00 L 192.00 186.00 L 193.00 187.00 L 199.00 187.00 L 200.00 186.00 L 202.00 186.00 L 205.00 183.00 L 206.00 183.00 L 207.00 182.00 L 207.00 181.00 L 209.00 179.00 L 209.00 177.00 L 210.00 176.00 L 210.00 174.00 L 209.00 173.00 L 209.00 168.00 L 208.00 167.00 L 208.00 166.00 L 205.00 163.00 L 205.00 162.00 L 202.00 159.00 L 197.00 159.00 L 196.00 158.00 Z"/>
    <path d="M 311.00 152.00 L 310.00 153.00 L 308.00 153.00 L 308.00 155.00 L 310.00 157.00 L 311.00 157.00 L 314.00 160.00 L 315.00 160.00 L 316.00 161.00 L 316.00 162.00 L 317.00 163.00 L 318.00 163.00 L 321.00 166.00 L 321.00 167.00 L 326.00 172.00 L 326.00 173.00 L 328.00 175.00 L 328.00 176.00 L 329.00 177.00 L 329.00 178.00 L 330.00 179.00 L 330.00 180.00 L 332.00 182.00 L 332.00 183.00 L 333.00 184.00 L 333.00 187.00 L 334.00 188.00 L 334.00 191.00 L 335.00 192.00 L 335.00 203.00 L 334.00 204.00 L 334.00 208.00 L 333.00 209.00 L 333.00 210.00 L 332.00 211.00 L 332.00 212.00 L 331.00 213.00 L 331.00 214.00 L 330.00 215.00 L 330.00 216.00 L 328.00 218.00 L 328.00 219.00 L 317.00 230.00 L 316.00 230.00 L 314.00 232.00 L 313.00 232.00 L 311.00 234.00 L 309.00 234.00 L 308.00 235.00 L 307.00 235.00 L 306.00 236.00 L 305.00 236.00 L 304.00 237.00 L 303.00 237.00 L 302.00 238.00 L 300.00 238.00 L 299.00 239.00 L 296.00 239.00 L 295.00 240.00 L 293.00 240.00 L 292.00 241.00 L 288.00 241.00 L 287.00 242.00 L 282.00 242.00 L 281.00 243.00 L 274.00 243.00 L 274.00 245.00 L 275.00 246.00 L 277.00 246.00 L 279.00 248.00 L 280.00 248.00 L 281.00 249.00 L 282.00 249.00 L 283.00 250.00 L 284.00 250.00 L 285.00 251.00 L 287.00 251.00 L 288.00 252.00 L 289.00 252.00 L 290.00 253.00 L 292.00 253.00 L 293.00 254.00 L 297.00 254.00 L 298.00 255.00 L 302.00 255.00 L 303.00 256.00 L 308.00 256.00 L 309.00 255.00 L 316.00 255.00 L 317.00 254.00 L 319.00 254.00 L 320.00 253.00 L 322.00 253.00 L 323.00 252.00 L 324.00 252.00 L 325.00 251.00 L 326.00 251.00 L 327.00 250.00 L 329.00 250.00 L 332.00 247.00 L 333.00 247.00 L 334.00 246.00 L 335.00 246.00 L 337.00 244.00 L 338.00 244.00 L 344.00 238.00 L 345.00 238.00 L 351.00 232.00 L 352.00 232.00 L 356.00 228.00 L 357.00 228.00 L 360.00 225.00 L 361.00 225.00 L 365.00 221.00 L 366.00 221.00 L 367.00 220.00 L 368.00 220.00 L 370.00 218.00 L 371.00 218.00 L 372.00 217.00 L 373.00 217.00 L 374.00 216.00 L 375.00 216.00 L 376.00 215.00 L 377.00 215.00 L 378.00 214.00 L 378.00 212.00 L 377.00 211.00 L 377.00 210.00 L 372.00 205.00 L 372.00 204.00 L 371.00 204.00 L 370.00 203.00 L 370.00 200.00 L 369.00 199.00 L 369.00 198.00 L 368.00 197.00 L 368.00 196.00 L 367.00 195.00 L 367.00 194.00 L 366.00 193.00 L 366.00 192.00 L 365.00 191.00 L 365.00 189.00 L 364.00 188.00 L 364.00 187.00 L 362.00 185.00 L 362.00 183.00 L 361.00 182.00 L 361.00 180.00 L 360.00 179.00 L 360.00 178.00 L 359.00 177.00 L 359.00 176.00 L 358.00 175.00 L 358.00 174.00 L 357.00 173.00 L 357.00 172.00 L 355.00 170.00 L 355.00 169.00 L 354.00 168.00 L 354.00 167.00 L 345.00 158.00 L 344.00 158.00 L 343.00 157.00 L 342.00 157.00 L 341.00 156.00 L 340.00 156.00 L 339.00 155.00 L 338.00 155.00 L 337.00 154.00 L 335.00 154.00 L 334.00 153.00 L 330.00 153.00 L 329.00 152.00 Z"/>
    <path d="M 52.00 152.00 L 51.00 153.00 L 48.00 153.00 L 47.00 154.00 L 45.00 154.00 L 44.00 155.00 L 43.00 155.00 L 39.00 159.00 L 38.00 159.00 L 37.00 160.00 L 37.00 161.00 L 35.00 163.00 L 35.00 164.00 L 33.00 166.00 L 33.00 167.00 L 32.00 168.00 L 32.00 169.00 L 31.00 170.00 L 31.00 171.00 L 30.00 172.00 L 30.00 174.00 L 29.00 175.00 L 29.00 176.00 L 28.00 177.00 L 28.00 178.00 L 27.00 179.00 L 27.00 181.00 L 26.00 182.00 L 26.00 185.00 L 25.00 186.00 L 25.00 188.00 L 24.00 189.00 L 24.00 192.00 L 23.00 193.00 L 23.00 195.00 L 22.00 196.00 L 22.00 198.00 L 21.00 199.00 L 21.00 201.00 L 20.00 202.00 L 20.00 204.00 L 19.00 205.00 L 19.00 206.00 L 18.00 207.00 L 18.00 209.00 L 17.00 210.00 L 17.00 211.00 L 16.00 212.00 L 16.00 213.00 L 14.00 215.00 L 14.00 216.00 L 12.00 218.00 L 12.00 219.00 L 11.00 220.00 L 11.00 223.00 L 12.00 224.00 L 15.00 224.00 L 17.00 226.00 L 19.00 226.00 L 20.00 227.00 L 21.00 227.00 L 22.00 228.00 L 23.00 228.00 L 26.00 231.00 L 27.00 231.00 L 28.00 232.00 L 29.00 232.00 L 31.00 234.00 L 32.00 234.00 L 34.00 236.00 L 35.00 236.00 L 38.00 239.00 L 39.00 239.00 L 42.00 242.00 L 43.00 242.00 L 45.00 244.00 L 46.00 244.00 L 48.00 246.00 L 49.00 246.00 L 50.00 247.00 L 51.00 247.00 L 52.00 248.00 L 53.00 248.00 L 55.00 250.00 L 57.00 250.00 L 58.00 251.00 L 59.00 251.00 L 60.00 252.00 L 63.00 252.00 L 64.00 253.00 L 77.00 253.00 L 78.00 252.00 L 81.00 252.00 L 82.00 251.00 L 83.00 251.00 L 84.00 250.00 L 89.00 250.00 L 90.00 251.00 L 90.00 255.00 L 87.00 258.00 L 87.00 259.00 L 85.00 261.00 L 85.00 262.00 L 84.00 263.00 L 84.00 264.00 L 83.00 265.00 L 83.00 267.00 L 82.00 268.00 L 82.00 269.00 L 81.00 270.00 L 81.00 283.00 L 82.00 284.00 L 82.00 286.00 L 83.00 287.00 L 83.00 288.00 L 84.00 289.00 L 84.00 291.00 L 86.00 293.00 L 86.00 294.00 L 87.00 295.00 L 87.00 296.00 L 88.00 297.00 L 88.00 298.00 L 91.00 301.00 L 91.00 302.00 L 95.00 306.00 L 95.00 307.00 L 98.00 310.00 L 98.00 311.00 L 102.00 315.00 L 102.00 316.00 L 106.00 320.00 L 106.00 321.00 L 108.00 323.00 L 108.00 324.00 L 111.00 327.00 L 111.00 328.00 L 112.00 329.00 L 112.00 330.00 L 113.00 331.00 L 113.00 332.00 L 114.00 333.00 L 114.00 334.00 L 115.00 335.00 L 115.00 336.00 L 116.00 337.00 L 116.00 339.00 L 117.00 340.00 L 117.00 341.00 L 119.00 341.00 L 120.00 340.00 L 121.00 340.00 L 122.00 339.00 L 123.00 339.00 L 125.00 337.00 L 126.00 337.00 L 127.00 336.00 L 128.00 336.00 L 129.00 335.00 L 130.00 335.00 L 131.00 334.00 L 132.00 334.00 L 133.00 333.00 L 135.00 333.00 L 136.00 332.00 L 137.00 332.00 L 138.00 331.00 L 140.00 331.00 L 141.00 330.00 L 143.00 330.00 L 144.00 329.00 L 145.00 329.00 L 146.00 328.00 L 148.00 328.00 L 149.00 327.00 L 150.00 327.00 L 151.00 326.00 L 153.00 326.00 L 154.00 325.00 L 155.00 325.00 L 156.00 324.00 L 158.00 324.00 L 159.00 323.00 L 161.00 323.00 L 163.00 321.00 L 164.00 321.00 L 165.00 320.00 L 166.00 320.00 L 167.00 319.00 L 169.00 319.00 L 174.00 314.00 L 175.00 314.00 L 177.00 312.00 L 177.00 311.00 L 178.00 310.00 L 178.00 308.00 L 180.00 306.00 L 180.00 305.00 L 181.00 304.00 L 181.00 292.00 L 179.00 292.00 L 178.00 293.00 L 177.00 293.00 L 176.00 294.00 L 174.00 294.00 L 173.00 295.00 L 172.00 295.00 L 171.00 296.00 L 169.00 296.00 L 168.00 297.00 L 167.00 297.00 L 166.00 298.00 L 165.00 298.00 L 164.00 299.00 L 161.00 299.00 L 160.00 300.00 L 157.00 300.00 L 156.00 301.00 L 153.00 301.00 L 152.00 302.00 L 136.00 302.00 L 135.00 301.00 L 133.00 301.00 L 132.00 300.00 L 130.00 300.00 L 129.00 299.00 L 127.00 299.00 L 126.00 298.00 L 125.00 298.00 L 124.00 297.00 L 123.00 297.00 L 121.00 295.00 L 120.00 295.00 L 118.00 293.00 L 117.00 293.00 L 110.00 286.00 L 110.00 285.00 L 107.00 282.00 L 107.00 281.00 L 106.00 280.00 L 106.00 279.00 L 105.00 278.00 L 105.00 277.00 L 104.00 276.00 L 104.00 275.00 L 103.00 274.00 L 103.00 272.00 L 102.00 271.00 L 102.00 268.00 L 101.00 267.00 L 101.00 264.00 L 100.00 263.00 L 100.00 255.00 L 99.00 254.00 L 99.00 248.00 L 97.00 248.00 L 96.00 247.00 L 96.00 243.00 L 97.00 242.00 L 97.00 240.00 L 96.00 240.00 L 95.00 239.00 L 91.00 239.00 L 90.00 238.00 L 86.00 238.00 L 85.00 237.00 L 82.00 237.00 L 81.00 236.00 L 79.00 236.00 L 78.00 235.00 L 76.00 235.00 L 75.00 234.00 L 74.00 234.00 L 73.00 233.00 L 72.00 233.00 L 71.00 232.00 L 70.00 232.00 L 68.00 230.00 L 67.00 230.00 L 66.00 229.00 L 65.00 229.00 L 55.00 219.00 L 55.00 218.00 L 53.00 216.00 L 53.00 215.00 L 52.00 214.00 L 52.00 213.00 L 51.00 212.00 L 51.00 211.00 L 50.00 210.00 L 50.00 209.00 L 49.00 208.00 L 49.00 205.00 L 48.00 204.00 L 48.00 192.00 L 49.00 191.00 L 49.00 188.00 L 50.00 187.00 L 50.00 185.00 L 51.00 184.00 L 51.00 183.00 L 52.00 182.00 L 52.00 181.00 L 53.00 180.00 L 53.00 179.00 L 54.00 178.00 L 54.00 177.00 L 58.00 173.00 L 58.00 172.00 L 64.00 166.00 L 65.00 166.00 L 68.00 163.00 L 69.00 163.00 L 72.00 160.00 L 73.00 160.00 L 74.00 159.00 L 75.00 159.00 L 76.00 158.00 L 77.00 158.00 L 77.00 156.00 L 76.00 156.00 L 75.00 155.00 L 74.00 155.00 L 73.00 154.00 L 70.00 154.00 L 69.00 153.00 L 65.00 153.00 L 64.00 152.00 Z"/>
    <path d="M 266.00 112.00 L 265.00 113.00 L 263.00 113.00 L 262.00 114.00 L 261.00 114.00 L 254.00 121.00 L 254.00 122.00 L 252.00 124.00 L 252.00 125.00 L 250.00 127.00 L 250.00 128.00 L 248.00 130.00 L 248.00 131.00 L 246.00 133.00 L 246.00 136.00 L 247.00 137.00 L 250.00 137.00 L 251.00 136.00 L 253.00 136.00 L 254.00 135.00 L 258.00 135.00 L 259.00 134.00 L 261.00 134.00 L 262.00 133.00 L 263.00 133.00 L 264.00 132.00 L 265.00 132.00 L 266.00 131.00 L 267.00 131.00 L 268.00 130.00 L 269.00 130.00 L 274.00 125.00 L 274.00 124.00 L 275.00 123.00 L 275.00 122.00 L 276.00 121.00 L 276.00 118.00 L 275.00 117.00 L 275.00 116.00 L 273.00 114.00 L 273.00 113.00 L 272.00 113.00 L 271.00 112.00 Z"/>
    <path d="M 123.00 108.00 L 122.00 109.00 L 121.00 109.00 L 120.00 110.00 L 120.00 111.00 L 119.00 112.00 L 119.00 119.00 L 121.00 121.00 L 121.00 122.00 L 124.00 125.00 L 125.00 125.00 L 127.00 127.00 L 128.00 127.00 L 129.00 128.00 L 131.00 128.00 L 132.00 129.00 L 133.00 129.00 L 134.00 130.00 L 136.00 130.00 L 137.00 131.00 L 140.00 131.00 L 141.00 132.00 L 147.00 132.00 L 147.00 127.00 L 146.00 126.00 L 146.00 125.00 L 144.00 123.00 L 144.00 122.00 L 143.00 121.00 L 143.00 120.00 L 140.00 117.00 L 140.00 116.00 L 134.00 110.00 L 133.00 110.00 L 132.00 109.00 L 131.00 109.00 L 130.00 108.00 Z"/>
    <path d="M 273.00 83.00 L 272.00 84.00 L 269.00 84.00 L 268.00 85.00 L 265.00 85.00 L 264.00 86.00 L 262.00 86.00 L 261.00 87.00 L 260.00 87.00 L 258.00 89.00 L 257.00 89.00 L 256.00 90.00 L 255.00 90.00 L 253.00 92.00 L 252.00 92.00 L 251.00 93.00 L 250.00 93.00 L 250.00 94.00 L 249.00 95.00 L 248.00 95.00 L 244.00 99.00 L 243.00 99.00 L 243.00 100.00 L 240.00 103.00 L 239.00 103.00 L 238.00 104.00 L 238.00 105.00 L 232.00 111.00 L 232.00 112.00 L 230.00 114.00 L 230.00 117.00 L 231.00 118.00 L 231.00 119.00 L 233.00 121.00 L 234.00 121.00 L 235.00 122.00 L 238.00 122.00 L 240.00 120.00 L 241.00 120.00 L 249.00 112.00 L 250.00 112.00 L 253.00 109.00 L 254.00 109.00 L 255.00 108.00 L 256.00 108.00 L 257.00 107.00 L 258.00 107.00 L 259.00 106.00 L 260.00 106.00 L 261.00 105.00 L 262.00 105.00 L 263.00 104.00 L 265.00 104.00 L 266.00 103.00 L 270.00 103.00 L 271.00 102.00 L 278.00 102.00 L 279.00 103.00 L 280.00 103.00 L 281.00 104.00 L 282.00 104.00 L 287.00 109.00 L 287.00 110.00 L 288.00 111.00 L 288.00 119.00 L 287.00 120.00 L 287.00 122.00 L 286.00 123.00 L 286.00 124.00 L 285.00 125.00 L 285.00 126.00 L 284.00 127.00 L 284.00 128.00 L 283.00 129.00 L 282.00 129.00 L 282.00 130.00 L 275.00 137.00 L 274.00 137.00 L 271.00 140.00 L 270.00 140.00 L 268.00 142.00 L 267.00 142.00 L 265.00 144.00 L 264.00 144.00 L 263.00 145.00 L 262.00 145.00 L 261.00 146.00 L 259.00 146.00 L 258.00 147.00 L 257.00 147.00 L 255.00 149.00 L 255.00 153.00 L 256.00 154.00 L 256.00 155.00 L 257.00 156.00 L 258.00 156.00 L 259.00 157.00 L 260.00 157.00 L 261.00 158.00 L 261.00 163.00 L 260.00 164.00 L 260.00 165.00 L 259.00 166.00 L 259.00 170.00 L 262.00 173.00 L 265.00 173.00 L 266.00 174.00 L 273.00 174.00 L 274.00 175.00 L 277.00 175.00 L 278.00 176.00 L 280.00 176.00 L 281.00 177.00 L 283.00 177.00 L 284.00 178.00 L 285.00 178.00 L 286.00 179.00 L 287.00 179.00 L 288.00 180.00 L 289.00 180.00 L 290.00 181.00 L 291.00 181.00 L 292.00 182.00 L 293.00 182.00 L 295.00 184.00 L 296.00 184.00 L 297.00 185.00 L 297.00 186.00 L 301.00 190.00 L 301.00 191.00 L 302.00 192.00 L 302.00 193.00 L 303.00 194.00 L 303.00 201.00 L 302.00 202.00 L 302.00 203.00 L 301.00 204.00 L 301.00 205.00 L 299.00 207.00 L 298.00 207.00 L 296.00 209.00 L 295.00 209.00 L 294.00 210.00 L 293.00 210.00 L 292.00 211.00 L 289.00 211.00 L 288.00 212.00 L 278.00 212.00 L 277.00 211.00 L 272.00 211.00 L 271.00 210.00 L 268.00 210.00 L 267.00 209.00 L 265.00 209.00 L 264.00 208.00 L 263.00 208.00 L 262.00 207.00 L 260.00 207.00 L 259.00 206.00 L 258.00 206.00 L 257.00 205.00 L 256.00 205.00 L 255.00 204.00 L 250.00 204.00 L 248.00 206.00 L 248.00 216.00 L 247.00 217.00 L 242.00 217.00 L 241.00 218.00 L 239.00 218.00 L 238.00 219.00 L 238.00 221.00 L 237.00 222.00 L 237.00 225.00 L 238.00 226.00 L 238.00 227.00 L 240.00 229.00 L 240.00 230.00 L 241.00 231.00 L 241.00 232.00 L 242.00 233.00 L 242.00 234.00 L 244.00 236.00 L 244.00 237.00 L 245.00 238.00 L 245.00 240.00 L 246.00 241.00 L 246.00 243.00 L 247.00 244.00 L 247.00 246.00 L 248.00 247.00 L 248.00 250.00 L 249.00 251.00 L 249.00 262.00 L 248.00 263.00 L 248.00 265.00 L 247.00 266.00 L 247.00 267.00 L 245.00 269.00 L 245.00 270.00 L 242.00 273.00 L 241.00 273.00 L 240.00 274.00 L 232.00 274.00 L 231.00 273.00 L 229.00 273.00 L 227.00 271.00 L 226.00 271.00 L 219.00 264.00 L 219.00 263.00 L 216.00 260.00 L 216.00 259.00 L 215.00 258.00 L 215.00 257.00 L 213.00 255.00 L 213.00 253.00 L 212.00 252.00 L 212.00 251.00 L 211.00 250.00 L 211.00 249.00 L 210.00 248.00 L 210.00 246.00 L 209.00 245.00 L 209.00 242.00 L 208.00 241.00 L 208.00 239.00 L 207.00 238.00 L 207.00 235.00 L 206.00 234.00 L 201.00 234.00 L 200.00 235.00 L 199.00 235.00 L 199.00 236.00 L 198.00 237.00 L 197.00 237.00 L 197.00 238.00 L 196.00 239.00 L 196.00 246.00 L 197.00 247.00 L 197.00 251.00 L 198.00 252.00 L 198.00 255.00 L 199.00 256.00 L 199.00 259.00 L 200.00 260.00 L 200.00 261.00 L 201.00 262.00 L 201.00 264.00 L 202.00 265.00 L 202.00 266.00 L 203.00 267.00 L 203.00 268.00 L 204.00 269.00 L 204.00 270.00 L 205.00 271.00 L 205.00 272.00 L 206.00 273.00 L 206.00 274.00 L 209.00 277.00 L 209.00 278.00 L 214.00 283.00 L 214.00 284.00 L 215.00 284.00 L 218.00 287.00 L 219.00 287.00 L 220.00 288.00 L 221.00 288.00 L 223.00 290.00 L 224.00 290.00 L 225.00 291.00 L 227.00 291.00 L 228.00 292.00 L 231.00 292.00 L 232.00 293.00 L 232.00 297.00 L 231.00 298.00 L 227.00 298.00 L 226.00 297.00 L 222.00 297.00 L 221.00 296.00 L 219.00 296.00 L 218.00 295.00 L 215.00 295.00 L 214.00 294.00 L 212.00 294.00 L 211.00 293.00 L 210.00 293.00 L 209.00 292.00 L 207.00 292.00 L 206.00 291.00 L 205.00 291.00 L 204.00 290.00 L 203.00 290.00 L 202.00 289.00 L 200.00 289.00 L 199.00 288.00 L 198.00 288.00 L 197.00 287.00 L 196.00 287.00 L 195.00 286.00 L 194.00 286.00 L 193.00 285.00 L 192.00 285.00 L 191.00 284.00 L 190.00 284.00 L 189.00 283.00 L 188.00 283.00 L 187.00 282.00 L 184.00 282.00 L 184.00 285.00 L 185.00 286.00 L 185.00 291.00 L 186.00 291.00 L 187.00 292.00 L 187.00 294.00 L 188.00 295.00 L 188.00 296.00 L 189.00 297.00 L 189.00 299.00 L 192.00 302.00 L 192.00 303.00 L 194.00 305.00 L 194.00 306.00 L 200.00 312.00 L 201.00 312.00 L 203.00 314.00 L 204.00 314.00 L 206.00 316.00 L 208.00 316.00 L 209.00 317.00 L 211.00 317.00 L 212.00 318.00 L 213.00 318.00 L 214.00 319.00 L 218.00 319.00 L 219.00 320.00 L 223.00 320.00 L 224.00 321.00 L 231.00 321.00 L 232.00 322.00 L 241.00 322.00 L 242.00 323.00 L 247.00 323.00 L 248.00 324.00 L 251.00 324.00 L 252.00 325.00 L 255.00 325.00 L 256.00 326.00 L 258.00 326.00 L 259.00 327.00 L 260.00 327.00 L 261.00 328.00 L 265.00 328.00 L 266.00 327.00 L 266.00 325.00 L 267.00 324.00 L 267.00 322.00 L 268.00 321.00 L 268.00 320.00 L 269.00 319.00 L 269.00 318.00 L 270.00 317.00 L 270.00 316.00 L 271.00 315.00 L 271.00 314.00 L 272.00 313.00 L 272.00 312.00 L 274.00 310.00 L 274.00 308.00 L 277.00 305.00 L 277.00 304.00 L 279.00 302.00 L 279.00 301.00 L 281.00 299.00 L 281.00 298.00 L 282.00 297.00 L 282.00 295.00 L 284.00 293.00 L 284.00 292.00 L 285.00 291.00 L 285.00 289.00 L 287.00 287.00 L 287.00 285.00 L 288.00 284.00 L 288.00 279.00 L 289.00 278.00 L 289.00 276.00 L 290.00 275.00 L 290.00 273.00 L 289.00 272.00 L 289.00 271.00 L 288.00 270.00 L 288.00 266.00 L 287.00 265.00 L 287.00 264.00 L 283.00 260.00 L 283.00 259.00 L 282.00 258.00 L 282.00 257.00 L 281.00 256.00 L 279.00 256.00 L 279.00 258.00 L 277.00 260.00 L 277.00 262.00 L 276.00 263.00 L 276.00 265.00 L 275.00 266.00 L 275.00 268.00 L 274.00 269.00 L 274.00 271.00 L 273.00 272.00 L 273.00 273.00 L 272.00 274.00 L 272.00 275.00 L 271.00 276.00 L 271.00 277.00 L 270.00 278.00 L 270.00 279.00 L 269.00 280.00 L 265.00 280.00 L 264.00 279.00 L 264.00 275.00 L 265.00 274.00 L 265.00 272.00 L 266.00 271.00 L 266.00 268.00 L 267.00 267.00 L 267.00 260.00 L 266.00 259.00 L 266.00 256.00 L 265.00 255.00 L 265.00 249.00 L 264.00 248.00 L 264.00 247.00 L 263.00 246.00 L 263.00 245.00 L 262.00 244.00 L 262.00 242.00 L 260.00 240.00 L 260.00 238.00 L 259.00 237.00 L 259.00 236.00 L 258.00 235.00 L 258.00 234.00 L 255.00 231.00 L 255.00 230.00 L 254.00 229.00 L 254.00 228.00 L 252.00 226.00 L 252.00 225.00 L 251.00 224.00 L 251.00 220.00 L 252.00 219.00 L 256.00 219.00 L 257.00 220.00 L 258.00 220.00 L 259.00 221.00 L 260.00 221.00 L 261.00 222.00 L 262.00 222.00 L 263.00 223.00 L 265.00 223.00 L 266.00 224.00 L 268.00 224.00 L 269.00 225.00 L 271.00 225.00 L 272.00 226.00 L 274.00 226.00 L 275.00 227.00 L 280.00 227.00 L 281.00 228.00 L 294.00 228.00 L 295.00 227.00 L 299.00 227.00 L 300.00 226.00 L 302.00 226.00 L 303.00 225.00 L 304.00 225.00 L 305.00 224.00 L 306.00 224.00 L 307.00 223.00 L 308.00 223.00 L 310.00 221.00 L 311.00 221.00 L 318.00 214.00 L 318.00 213.00 L 319.00 212.00 L 319.00 211.00 L 320.00 210.00 L 320.00 209.00 L 321.00 208.00 L 321.00 207.00 L 322.00 206.00 L 322.00 205.00 L 323.00 204.00 L 323.00 191.00 L 322.00 190.00 L 322.00 189.00 L 321.00 188.00 L 321.00 187.00 L 320.00 186.00 L 320.00 184.00 L 319.00 183.00 L 319.00 182.00 L 316.00 179.00 L 316.00 178.00 L 313.00 175.00 L 312.00 175.00 L 308.00 171.00 L 307.00 171.00 L 306.00 170.00 L 305.00 170.00 L 304.00 169.00 L 303.00 169.00 L 302.00 168.00 L 301.00 168.00 L 300.00 167.00 L 298.00 167.00 L 297.00 166.00 L 295.00 166.00 L 294.00 165.00 L 292.00 165.00 L 291.00 164.00 L 287.00 164.00 L 286.00 163.00 L 280.00 163.00 L 279.00 162.00 L 268.00 162.00 L 267.00 161.00 L 267.00 157.00 L 268.00 156.00 L 269.00 156.00 L 270.00 155.00 L 272.00 155.00 L 273.00 154.00 L 274.00 154.00 L 275.00 153.00 L 276.00 153.00 L 277.00 152.00 L 278.00 152.00 L 279.00 151.00 L 280.00 151.00 L 281.00 150.00 L 282.00 150.00 L 284.00 148.00 L 285.00 148.00 L 287.00 146.00 L 288.00 146.00 L 295.00 139.00 L 295.00 138.00 L 297.00 136.00 L 298.00 136.00 L 298.00 135.00 L 300.00 133.00 L 300.00 132.00 L 303.00 129.00 L 303.00 128.00 L 304.00 127.00 L 304.00 124.00 L 305.00 123.00 L 305.00 122.00 L 306.00 121.00 L 306.00 116.00 L 307.00 115.00 L 307.00 110.00 L 306.00 109.00 L 306.00 108.00 L 305.00 107.00 L 305.00 102.00 L 304.00 101.00 L 304.00 100.00 L 303.00 99.00 L 303.00 97.00 L 302.00 96.00 L 302.00 95.00 L 295.00 88.00 L 294.00 88.00 L 293.00 87.00 L 292.00 87.00 L 290.00 85.00 L 289.00 85.00 L 288.00 84.00 L 283.00 84.00 L 282.00 83.00 Z"/>
    <path d="M 317.00 39.00 L 316.00 40.00 L 315.00 40.00 L 314.00 41.00 L 312.00 41.00 L 311.00 42.00 L 308.00 42.00 L 307.00 43.00 L 304.00 43.00 L 303.00 44.00 L 299.00 44.00 L 298.00 45.00 L 292.00 45.00 L 291.00 46.00 L 286.00 46.00 L 285.00 47.00 L 280.00 47.00 L 279.00 48.00 L 276.00 48.00 L 275.00 49.00 L 272.00 49.00 L 271.00 50.00 L 270.00 50.00 L 269.00 51.00 L 268.00 51.00 L 267.00 52.00 L 265.00 52.00 L 264.00 53.00 L 263.00 53.00 L 262.00 54.00 L 261.00 54.00 L 258.00 57.00 L 257.00 57.00 L 255.00 59.00 L 254.00 59.00 L 254.00 60.00 L 248.00 66.00 L 248.00 67.00 L 246.00 69.00 L 246.00 70.00 L 244.00 72.00 L 244.00 73.00 L 242.00 75.00 L 242.00 76.00 L 241.00 77.00 L 241.00 78.00 L 240.00 79.00 L 240.00 81.00 L 243.00 81.00 L 244.00 80.00 L 245.00 80.00 L 246.00 79.00 L 247.00 79.00 L 248.00 78.00 L 250.00 78.00 L 251.00 77.00 L 252.00 77.00 L 253.00 76.00 L 255.00 76.00 L 256.00 75.00 L 257.00 75.00 L 258.00 74.00 L 261.00 74.00 L 262.00 73.00 L 264.00 73.00 L 265.00 72.00 L 269.00 72.00 L 270.00 71.00 L 276.00 71.00 L 277.00 70.00 L 282.00 70.00 L 283.00 71.00 L 290.00 71.00 L 291.00 72.00 L 293.00 72.00 L 294.00 73.00 L 296.00 73.00 L 297.00 74.00 L 298.00 74.00 L 300.00 76.00 L 301.00 76.00 L 305.00 80.00 L 306.00 80.00 L 307.00 81.00 L 307.00 82.00 L 310.00 85.00 L 310.00 86.00 L 312.00 88.00 L 312.00 90.00 L 313.00 91.00 L 313.00 92.00 L 314.00 93.00 L 314.00 96.00 L 315.00 97.00 L 315.00 118.00 L 314.00 119.00 L 314.00 122.00 L 313.00 123.00 L 313.00 127.00 L 312.00 128.00 L 312.00 130.00 L 311.00 131.00 L 311.00 132.00 L 310.00 133.00 L 310.00 135.00 L 309.00 136.00 L 309.00 138.00 L 308.00 139.00 L 308.00 141.00 L 311.00 141.00 L 312.00 140.00 L 313.00 140.00 L 314.00 139.00 L 315.00 139.00 L 317.00 137.00 L 318.00 137.00 L 319.00 136.00 L 320.00 136.00 L 322.00 134.00 L 323.00 134.00 L 326.00 131.00 L 327.00 131.00 L 335.00 123.00 L 335.00 122.00 L 338.00 119.00 L 338.00 118.00 L 339.00 117.00 L 339.00 115.00 L 340.00 114.00 L 340.00 113.00 L 341.00 112.00 L 341.00 107.00 L 342.00 106.00 L 342.00 103.00 L 341.00 102.00 L 341.00 96.00 L 340.00 95.00 L 340.00 93.00 L 339.00 92.00 L 339.00 90.00 L 338.00 89.00 L 338.00 88.00 L 337.00 87.00 L 337.00 86.00 L 336.00 85.00 L 336.00 83.00 L 335.00 82.00 L 335.00 81.00 L 334.00 80.00 L 334.00 79.00 L 332.00 77.00 L 332.00 76.00 L 331.00 75.00 L 331.00 74.00 L 330.00 73.00 L 330.00 71.00 L 329.00 70.00 L 329.00 69.00 L 328.00 68.00 L 328.00 67.00 L 327.00 66.00 L 327.00 65.00 L 326.00 64.00 L 326.00 62.00 L 325.00 61.00 L 325.00 60.00 L 324.00 59.00 L 324.00 57.00 L 323.00 56.00 L 323.00 55.00 L 322.00 54.00 L 322.00 51.00 L 321.00 50.00 L 321.00 47.00 L 320.00 46.00 L 320.00 39.00 Z"/>
    <path d="M 185.00 3.00 L 184.00 4.00 L 184.00 5.00 L 182.00 7.00 L 182.00 8.00 L 181.00 9.00 L 181.00 10.00 L 179.00 12.00 L 179.00 13.00 L 167.00 25.00 L 166.00 25.00 L 166.00 26.00 L 162.00 30.00 L 162.00 31.00 L 160.00 33.00 L 159.00 33.00 L 159.00 34.00 L 154.00 39.00 L 154.00 40.00 L 153.00 41.00 L 153.00 42.00 L 151.00 44.00 L 151.00 45.00 L 150.00 46.00 L 150.00 47.00 L 149.00 48.00 L 149.00 49.00 L 148.00 50.00 L 148.00 54.00 L 147.00 55.00 L 147.00 66.00 L 146.00 67.00 L 142.00 67.00 L 141.00 66.00 L 141.00 65.00 L 135.00 59.00 L 135.00 58.00 L 134.00 57.00 L 133.00 57.00 L 130.00 54.00 L 129.00 54.00 L 127.00 52.00 L 125.00 52.00 L 124.00 51.00 L 123.00 51.00 L 122.00 50.00 L 119.00 50.00 L 118.00 49.00 L 107.00 49.00 L 106.00 50.00 L 102.00 50.00 L 101.00 51.00 L 99.00 51.00 L 98.00 52.00 L 96.00 52.00 L 95.00 53.00 L 93.00 53.00 L 92.00 54.00 L 91.00 54.00 L 90.00 55.00 L 87.00 55.00 L 85.00 57.00 L 84.00 57.00 L 83.00 58.00 L 81.00 58.00 L 80.00 59.00 L 78.00 59.00 L 77.00 60.00 L 76.00 60.00 L 75.00 61.00 L 74.00 61.00 L 73.00 62.00 L 71.00 62.00 L 70.00 63.00 L 69.00 63.00 L 68.00 64.00 L 66.00 64.00 L 65.00 65.00 L 62.00 65.00 L 61.00 66.00 L 58.00 66.00 L 57.00 67.00 L 51.00 67.00 L 50.00 68.00 L 50.00 70.00 L 51.00 71.00 L 51.00 74.00 L 52.00 75.00 L 52.00 79.00 L 53.00 80.00 L 53.00 100.00 L 52.00 101.00 L 52.00 111.00 L 53.00 112.00 L 53.00 118.00 L 54.00 119.00 L 54.00 123.00 L 55.00 124.00 L 55.00 125.00 L 56.00 126.00 L 56.00 128.00 L 58.00 130.00 L 58.00 131.00 L 61.00 134.00 L 61.00 135.00 L 67.00 141.00 L 68.00 141.00 L 70.00 143.00 L 71.00 143.00 L 72.00 144.00 L 73.00 144.00 L 74.00 145.00 L 75.00 145.00 L 76.00 146.00 L 77.00 146.00 L 78.00 147.00 L 80.00 147.00 L 81.00 148.00 L 82.00 148.00 L 84.00 150.00 L 86.00 150.00 L 86.00 147.00 L 85.00 146.00 L 85.00 145.00 L 84.00 144.00 L 84.00 143.00 L 83.00 142.00 L 83.00 141.00 L 82.00 140.00 L 82.00 139.00 L 81.00 138.00 L 81.00 136.00 L 80.00 135.00 L 80.00 133.00 L 79.00 132.00 L 79.00 130.00 L 78.00 129.00 L 78.00 126.00 L 77.00 125.00 L 77.00 118.00 L 76.00 117.00 L 76.00 113.00 L 77.00 112.00 L 77.00 106.00 L 78.00 105.00 L 78.00 103.00 L 79.00 102.00 L 79.00 100.00 L 80.00 99.00 L 80.00 98.00 L 81.00 97.00 L 81.00 96.00 L 83.00 94.00 L 83.00 93.00 L 85.00 91.00 L 85.00 90.00 L 87.00 88.00 L 91.00 88.00 L 92.00 89.00 L 92.00 93.00 L 90.00 95.00 L 90.00 97.00 L 89.00 98.00 L 89.00 100.00 L 88.00 101.00 L 88.00 115.00 L 89.00 116.00 L 89.00 118.00 L 90.00 119.00 L 90.00 121.00 L 92.00 123.00 L 92.00 124.00 L 93.00 125.00 L 93.00 126.00 L 94.00 127.00 L 94.00 128.00 L 99.00 133.00 L 99.00 134.00 L 100.00 134.00 L 102.00 136.00 L 102.00 137.00 L 103.00 138.00 L 104.00 138.00 L 106.00 140.00 L 107.00 140.00 L 108.00 141.00 L 108.00 142.00 L 109.00 142.00 L 110.00 143.00 L 111.00 143.00 L 113.00 145.00 L 114.00 145.00 L 115.00 146.00 L 116.00 146.00 L 118.00 148.00 L 119.00 148.00 L 120.00 149.00 L 121.00 149.00 L 122.00 150.00 L 123.00 150.00 L 124.00 151.00 L 124.00 155.00 L 123.00 156.00 L 113.00 156.00 L 112.00 157.00 L 103.00 157.00 L 102.00 158.00 L 98.00 158.00 L 97.00 159.00 L 95.00 159.00 L 94.00 160.00 L 93.00 160.00 L 92.00 161.00 L 90.00 161.00 L 89.00 162.00 L 88.00 162.00 L 87.00 163.00 L 86.00 163.00 L 85.00 164.00 L 84.00 164.00 L 81.00 167.00 L 80.00 167.00 L 75.00 172.00 L 75.00 173.00 L 72.00 176.00 L 72.00 177.00 L 71.00 178.00 L 71.00 179.00 L 70.00 180.00 L 70.00 182.00 L 69.00 183.00 L 69.00 185.00 L 68.00 186.00 L 68.00 190.00 L 67.00 191.00 L 67.00 196.00 L 68.00 197.00 L 68.00 200.00 L 69.00 201.00 L 69.00 203.00 L 70.00 204.00 L 70.00 206.00 L 71.00 207.00 L 71.00 208.00 L 74.00 211.00 L 74.00 212.00 L 75.00 212.00 L 80.00 217.00 L 81.00 217.00 L 82.00 218.00 L 83.00 218.00 L 84.00 219.00 L 85.00 219.00 L 86.00 220.00 L 88.00 220.00 L 89.00 221.00 L 92.00 221.00 L 93.00 222.00 L 108.00 222.00 L 109.00 221.00 L 113.00 221.00 L 114.00 220.00 L 118.00 220.00 L 119.00 219.00 L 121.00 219.00 L 122.00 218.00 L 124.00 218.00 L 125.00 217.00 L 130.00 217.00 L 131.00 218.00 L 131.00 222.00 L 130.00 223.00 L 130.00 224.00 L 127.00 227.00 L 127.00 228.00 L 125.00 230.00 L 125.00 231.00 L 124.00 232.00 L 124.00 233.00 L 123.00 234.00 L 123.00 235.00 L 121.00 237.00 L 121.00 239.00 L 120.00 240.00 L 120.00 241.00 L 119.00 242.00 L 119.00 245.00 L 118.00 246.00 L 118.00 248.00 L 117.00 249.00 L 117.00 266.00 L 118.00 267.00 L 118.00 269.00 L 119.00 270.00 L 119.00 272.00 L 120.00 273.00 L 120.00 274.00 L 122.00 276.00 L 122.00 277.00 L 125.00 280.00 L 125.00 281.00 L 128.00 284.00 L 129.00 284.00 L 131.00 286.00 L 132.00 286.00 L 134.00 288.00 L 137.00 288.00 L 138.00 289.00 L 153.00 289.00 L 154.00 288.00 L 157.00 288.00 L 158.00 287.00 L 159.00 287.00 L 160.00 286.00 L 161.00 286.00 L 163.00 284.00 L 164.00 284.00 L 174.00 274.00 L 174.00 273.00 L 176.00 271.00 L 176.00 270.00 L 178.00 268.00 L 178.00 267.00 L 179.00 266.00 L 179.00 265.00 L 180.00 264.00 L 180.00 263.00 L 181.00 262.00 L 181.00 261.00 L 182.00 260.00 L 182.00 257.00 L 183.00 256.00 L 183.00 255.00 L 184.00 254.00 L 184.00 253.00 L 185.00 252.00 L 185.00 251.00 L 186.00 250.00 L 186.00 248.00 L 187.00 247.00 L 187.00 236.00 L 186.00 236.00 L 185.00 235.00 L 179.00 235.00 L 177.00 237.00 L 177.00 238.00 L 176.00 239.00 L 176.00 241.00 L 175.00 242.00 L 175.00 243.00 L 174.00 244.00 L 174.00 245.00 L 173.00 246.00 L 173.00 248.00 L 172.00 249.00 L 172.00 250.00 L 169.00 253.00 L 169.00 254.00 L 168.00 255.00 L 168.00 256.00 L 159.00 265.00 L 158.00 265.00 L 156.00 267.00 L 155.00 267.00 L 154.00 268.00 L 153.00 268.00 L 152.00 269.00 L 143.00 269.00 L 142.00 268.00 L 141.00 268.00 L 135.00 262.00 L 135.00 258.00 L 134.00 257.00 L 134.00 248.00 L 135.00 247.00 L 135.00 245.00 L 136.00 244.00 L 136.00 242.00 L 137.00 241.00 L 137.00 240.00 L 138.00 239.00 L 138.00 237.00 L 139.00 236.00 L 139.00 235.00 L 140.00 234.00 L 140.00 233.00 L 143.00 230.00 L 143.00 229.00 L 144.00 228.00 L 144.00 227.00 L 149.00 222.00 L 149.00 221.00 L 151.00 219.00 L 151.00 215.00 L 149.00 213.00 L 148.00 213.00 L 147.00 212.00 L 142.00 212.00 L 141.00 211.00 L 141.00 204.00 L 140.00 203.00 L 140.00 202.00 L 138.00 202.00 L 137.00 201.00 L 133.00 201.00 L 132.00 202.00 L 130.00 202.00 L 129.00 203.00 L 126.00 203.00 L 125.00 204.00 L 123.00 204.00 L 122.00 205.00 L 117.00 205.00 L 116.00 206.00 L 104.00 206.00 L 103.00 205.00 L 100.00 205.00 L 99.00 204.00 L 97.00 204.00 L 96.00 203.00 L 95.00 203.00 L 93.00 201.00 L 92.00 201.00 L 91.00 200.00 L 91.00 199.00 L 88.00 196.00 L 88.00 195.00 L 87.00 194.00 L 87.00 188.00 L 88.00 187.00 L 88.00 186.00 L 89.00 185.00 L 89.00 184.00 L 91.00 182.00 L 91.00 181.00 L 93.00 179.00 L 94.00 179.00 L 97.00 176.00 L 98.00 176.00 L 99.00 175.00 L 100.00 175.00 L 101.00 174.00 L 102.00 174.00 L 103.00 173.00 L 105.00 173.00 L 106.00 172.00 L 107.00 172.00 L 108.00 171.00 L 111.00 171.00 L 112.00 170.00 L 116.00 170.00 L 117.00 169.00 L 130.00 169.00 L 131.00 168.00 L 132.00 168.00 L 133.00 167.00 L 133.00 160.00 L 131.00 158.00 L 131.00 154.00 L 132.00 153.00 L 134.00 153.00 L 136.00 151.00 L 136.00 150.00 L 137.00 149.00 L 137.00 146.00 L 136.00 145.00 L 136.00 144.00 L 135.00 143.00 L 134.00 143.00 L 132.00 141.00 L 131.00 141.00 L 129.00 139.00 L 128.00 139.00 L 126.00 137.00 L 125.00 137.00 L 114.00 126.00 L 114.00 125.00 L 111.00 122.00 L 111.00 121.00 L 110.00 120.00 L 110.00 119.00 L 109.00 118.00 L 109.00 116.00 L 108.00 115.00 L 108.00 105.00 L 110.00 103.00 L 110.00 102.00 L 113.00 99.00 L 114.00 99.00 L 115.00 98.00 L 117.00 98.00 L 118.00 97.00 L 125.00 97.00 L 126.00 98.00 L 130.00 98.00 L 131.00 99.00 L 132.00 99.00 L 133.00 100.00 L 134.00 100.00 L 135.00 101.00 L 136.00 101.00 L 137.00 102.00 L 138.00 102.00 L 141.00 105.00 L 142.00 105.00 L 145.00 108.00 L 146.00 108.00 L 150.00 112.00 L 151.00 112.00 L 152.00 113.00 L 152.00 114.00 L 154.00 116.00 L 154.00 117.00 L 157.00 120.00 L 163.00 120.00 L 163.00 118.00 L 164.00 117.00 L 164.00 116.00 L 165.00 115.00 L 165.00 111.00 L 164.00 111.00 L 163.00 110.00 L 163.00 108.00 L 162.00 107.00 L 162.00 106.00 L 161.00 105.00 L 161.00 104.00 L 152.00 95.00 L 152.00 94.00 L 151.00 93.00 L 150.00 93.00 L 146.00 89.00 L 145.00 89.00 L 143.00 87.00 L 142.00 87.00 L 141.00 86.00 L 140.00 86.00 L 138.00 84.00 L 137.00 84.00 L 136.00 83.00 L 135.00 83.00 L 134.00 82.00 L 132.00 82.00 L 131.00 81.00 L 128.00 81.00 L 127.00 80.00 L 120.00 80.00 L 119.00 79.00 L 113.00 79.00 L 112.00 78.00 L 112.00 74.00 L 113.00 73.00 L 118.00 73.00 L 119.00 72.00 L 140.00 72.00 L 141.00 73.00 L 143.00 73.00 L 144.00 72.00 L 148.00 72.00 L 149.00 73.00 L 149.00 75.00 L 150.00 76.00 L 150.00 77.00 L 151.00 78.00 L 151.00 79.00 L 152.00 80.00 L 152.00 82.00 L 153.00 83.00 L 155.00 83.00 L 155.00 82.00 L 156.00 81.00 L 156.00 76.00 L 157.00 75.00 L 157.00 72.00 L 158.00 71.00 L 158.00 69.00 L 159.00 68.00 L 159.00 66.00 L 160.00 65.00 L 160.00 64.00 L 161.00 63.00 L 161.00 61.00 L 162.00 60.00 L 162.00 59.00 L 163.00 58.00 L 163.00 57.00 L 165.00 55.00 L 169.00 55.00 L 170.00 56.00 L 170.00 60.00 L 169.00 61.00 L 169.00 62.00 L 168.00 63.00 L 168.00 64.00 L 167.00 65.00 L 167.00 69.00 L 166.00 70.00 L 166.00 95.00 L 167.00 96.00 L 167.00 100.00 L 168.00 101.00 L 168.00 104.00 L 169.00 105.00 L 169.00 109.00 L 170.00 109.00 L 171.00 110.00 L 171.00 111.00 L 172.00 111.00 L 173.00 112.00 L 177.00 112.00 L 178.00 111.00 L 179.00 111.00 L 179.00 110.00 L 180.00 109.00 L 180.00 84.00 L 181.00 83.00 L 181.00 79.00 L 182.00 78.00 L 182.00 75.00 L 183.00 74.00 L 183.00 73.00 L 184.00 72.00 L 184.00 71.00 L 187.00 68.00 L 187.00 67.00 L 190.00 64.00 L 191.00 64.00 L 193.00 62.00 L 202.00 62.00 L 203.00 63.00 L 204.00 63.00 L 210.00 69.00 L 210.00 70.00 L 211.00 71.00 L 211.00 72.00 L 212.00 73.00 L 212.00 74.00 L 213.00 75.00 L 213.00 77.00 L 214.00 78.00 L 214.00 82.00 L 215.00 83.00 L 215.00 98.00 L 214.00 99.00 L 214.00 104.00 L 213.00 105.00 L 213.00 115.00 L 212.00 116.00 L 205.00 116.00 L 204.00 115.00 L 199.00 115.00 L 198.00 114.00 L 198.00 110.00 L 199.00 109.00 L 199.00 108.00 L 201.00 106.00 L 201.00 104.00 L 202.00 103.00 L 202.00 100.00 L 204.00 98.00 L 204.00 96.00 L 205.00 95.00 L 205.00 80.00 L 203.00 78.00 L 203.00 77.00 L 201.00 75.00 L 193.00 75.00 L 191.00 77.00 L 191.00 78.00 L 190.00 79.00 L 190.00 80.00 L 189.00 81.00 L 189.00 92.00 L 190.00 93.00 L 190.00 96.00 L 191.00 97.00 L 191.00 99.00 L 192.00 100.00 L 192.00 101.00 L 193.00 102.00 L 193.00 103.00 L 194.00 104.00 L 194.00 106.00 L 195.00 107.00 L 195.00 109.00 L 196.00 110.00 L 196.00 114.00 L 195.00 115.00 L 188.00 115.00 L 187.00 116.00 L 183.00 116.00 L 182.00 117.00 L 180.00 117.00 L 179.00 118.00 L 177.00 118.00 L 176.00 119.00 L 174.00 119.00 L 173.00 120.00 L 172.00 120.00 L 171.00 121.00 L 170.00 121.00 L 168.00 123.00 L 164.00 123.00 L 164.00 125.00 L 154.00 135.00 L 154.00 136.00 L 152.00 138.00 L 152.00 139.00 L 150.00 141.00 L 150.00 142.00 L 149.00 143.00 L 149.00 144.00 L 148.00 145.00 L 148.00 146.00 L 147.00 147.00 L 147.00 149.00 L 146.00 150.00 L 146.00 152.00 L 145.00 153.00 L 145.00 156.00 L 144.00 157.00 L 144.00 178.00 L 145.00 179.00 L 145.00 182.00 L 146.00 183.00 L 146.00 186.00 L 148.00 188.00 L 148.00 190.00 L 149.00 191.00 L 149.00 192.00 L 150.00 193.00 L 150.00 194.00 L 152.00 196.00 L 152.00 197.00 L 154.00 199.00 L 154.00 200.00 L 164.00 210.00 L 165.00 210.00 L 166.00 211.00 L 167.00 211.00 L 169.00 213.00 L 170.00 213.00 L 171.00 214.00 L 172.00 214.00 L 173.00 215.00 L 174.00 215.00 L 175.00 216.00 L 176.00 216.00 L 177.00 217.00 L 183.00 217.00 L 183.00 216.00 L 184.00 215.00 L 184.00 208.00 L 183.00 208.00 L 182.00 207.00 L 181.00 207.00 L 180.00 206.00 L 179.00 206.00 L 178.00 205.00 L 177.00 205.00 L 176.00 204.00 L 175.00 204.00 L 174.00 203.00 L 173.00 203.00 L 168.00 198.00 L 167.00 198.00 L 164.00 195.00 L 164.00 194.00 L 161.00 191.00 L 161.00 190.00 L 159.00 188.00 L 159.00 187.00 L 158.00 186.00 L 158.00 185.00 L 157.00 184.00 L 157.00 182.00 L 156.00 181.00 L 156.00 179.00 L 155.00 178.00 L 155.00 176.00 L 154.00 175.00 L 154.00 160.00 L 155.00 159.00 L 155.00 156.00 L 156.00 155.00 L 156.00 154.00 L 157.00 153.00 L 157.00 151.00 L 158.00 150.00 L 158.00 149.00 L 159.00 148.00 L 159.00 147.00 L 160.00 146.00 L 160.00 145.00 L 163.00 142.00 L 163.00 141.00 L 171.00 133.00 L 172.00 133.00 L 173.00 132.00 L 174.00 132.00 L 176.00 130.00 L 178.00 130.00 L 180.00 128.00 L 182.00 128.00 L 183.00 127.00 L 185.00 127.00 L 186.00 126.00 L 190.00 126.00 L 191.00 125.00 L 200.00 125.00 L 201.00 126.00 L 206.00 126.00 L 207.00 127.00 L 209.00 127.00 L 210.00 128.00 L 212.00 128.00 L 214.00 130.00 L 216.00 130.00 L 218.00 132.00 L 219.00 132.00 L 222.00 135.00 L 223.00 135.00 L 229.00 141.00 L 229.00 142.00 L 232.00 145.00 L 232.00 146.00 L 233.00 147.00 L 233.00 148.00 L 234.00 149.00 L 234.00 150.00 L 235.00 151.00 L 235.00 152.00 L 236.00 153.00 L 236.00 155.00 L 237.00 156.00 L 237.00 159.00 L 238.00 160.00 L 238.00 174.00 L 237.00 175.00 L 237.00 178.00 L 236.00 179.00 L 236.00 181.00 L 235.00 182.00 L 235.00 184.00 L 234.00 185.00 L 234.00 186.00 L 233.00 187.00 L 233.00 188.00 L 231.00 190.00 L 231.00 191.00 L 228.00 194.00 L 228.00 195.00 L 224.00 199.00 L 223.00 199.00 L 220.00 202.00 L 219.00 202.00 L 218.00 203.00 L 218.00 208.00 L 219.00 209.00 L 219.00 210.00 L 221.00 212.00 L 225.00 212.00 L 229.00 208.00 L 230.00 208.00 L 237.00 201.00 L 237.00 200.00 L 240.00 197.00 L 240.00 196.00 L 242.00 194.00 L 242.00 193.00 L 243.00 192.00 L 243.00 187.00 L 244.00 186.00 L 245.00 186.00 L 246.00 185.00 L 246.00 183.00 L 247.00 182.00 L 247.00 177.00 L 248.00 176.00 L 248.00 170.00 L 249.00 169.00 L 249.00 167.00 L 248.00 166.00 L 248.00 159.00 L 247.00 158.00 L 247.00 153.00 L 246.00 152.00 L 246.00 150.00 L 244.00 148.00 L 244.00 145.00 L 243.00 144.00 L 243.00 143.00 L 242.00 143.00 L 241.00 142.00 L 241.00 141.00 L 240.00 140.00 L 240.00 139.00 L 239.00 138.00 L 239.00 137.00 L 237.00 135.00 L 237.00 134.00 L 229.00 126.00 L 228.00 126.00 L 225.00 123.00 L 224.00 123.00 L 223.00 122.00 L 222.00 122.00 L 221.00 121.00 L 220.00 121.00 L 218.00 119.00 L 216.00 119.00 L 215.00 118.00 L 215.00 114.00 L 216.00 113.00 L 220.00 113.00 L 221.00 112.00 L 223.00 112.00 L 224.00 111.00 L 224.00 109.00 L 225.00 108.00 L 225.00 107.00 L 226.00 106.00 L 226.00 105.00 L 227.00 104.00 L 227.00 98.00 L 228.00 97.00 L 228.00 96.00 L 229.00 95.00 L 229.00 89.00 L 230.00 88.00 L 230.00 81.00 L 229.00 80.00 L 229.00 72.00 L 228.00 71.00 L 228.00 68.00 L 227.00 67.00 L 227.00 66.00 L 226.00 65.00 L 226.00 62.00 L 225.00 61.00 L 225.00 60.00 L 224.00 59.00 L 224.00 58.00 L 222.00 56.00 L 222.00 55.00 L 220.00 53.00 L 219.00 53.00 L 218.00 52.00 L 218.00 51.00 L 217.00 50.00 L 217.00 46.00 L 218.00 45.00 L 222.00 45.00 L 225.00 48.00 L 226.00 48.00 L 235.00 57.00 L 235.00 58.00 L 239.00 62.00 L 241.00 62.00 L 242.00 61.00 L 242.00 60.00 L 243.00 59.00 L 243.00 58.00 L 245.00 56.00 L 245.00 51.00 L 246.00 50.00 L 246.00 42.00 L 245.00 41.00 L 245.00 39.00 L 244.00 38.00 L 244.00 37.00 L 242.00 35.00 L 242.00 34.00 L 241.00 33.00 L 240.00 33.00 L 239.00 32.00 L 239.00 31.00 L 235.00 27.00 L 234.00 27.00 L 233.00 26.00 L 232.00 26.00 L 230.00 24.00 L 229.00 24.00 L 228.00 23.00 L 227.00 23.00 L 226.00 22.00 L 225.00 22.00 L 224.00 21.00 L 223.00 21.00 L 222.00 20.00 L 220.00 20.00 L 219.00 19.00 L 218.00 19.00 L 217.00 18.00 L 215.00 18.00 L 214.00 17.00 L 213.00 17.00 L 212.00 16.00 L 210.00 16.00 L 209.00 15.00 L 208.00 15.00 L 207.00 14.00 L 206.00 14.00 L 205.00 13.00 L 203.00 13.00 L 201.00 11.00 L 199.00 11.00 L 198.00 10.00 L 197.00 10.00 L 195.00 8.00 L 194.00 8.00 L 193.00 7.00 L 192.00 7.00 L 188.00 3.00 Z"/>
  </g>
  <g fill="#ffffff">
    <path d="M 242.00 242.00 L 242.00 250.00 L 243.00 250.00 L 244.00 251.00 L 244.00 256.00 L 242.00 258.00 L 242.00 260.00 L 238.00 264.00 L 227.00 264.00 L 227.00 268.00 L 228.00 268.00 L 230.00 270.00 L 232.00 270.00 L 233.00 269.00 L 241.00 269.00 L 243.00 267.00 L 243.00 264.00 L 244.00 263.00 L 245.00 263.00 L 246.00 262.00 L 246.00 260.00 L 247.00 259.00 L 247.00 253.00 L 246.00 252.00 L 246.00 251.00 L 245.00 251.00 L 244.00 250.00 L 244.00 242.00 Z"/>
    <path d="M 143.00 235.00 L 141.00 237.00 L 141.00 238.00 L 140.00 239.00 L 140.00 240.00 L 139.00 241.00 L 139.00 246.00 L 138.00 247.00 L 138.00 249.00 L 136.00 251.00 L 136.00 255.00 L 138.00 257.00 L 138.00 260.00 L 139.00 260.00 L 141.00 262.00 L 141.00 263.00 L 142.00 263.00 L 143.00 264.00 L 143.00 266.00 L 144.00 267.00 L 148.00 267.00 L 148.00 265.00 L 149.00 264.00 L 154.00 264.00 L 155.00 263.00 L 157.00 263.00 L 158.00 262.00 L 159.00 262.00 L 160.00 261.00 L 160.00 259.00 L 161.00 258.00 L 163.00 258.00 L 163.00 257.00 L 165.00 255.00 L 165.00 253.00 L 163.00 253.00 L 161.00 255.00 L 161.00 258.00 L 160.00 259.00 L 155.00 259.00 L 154.00 260.00 L 148.00 260.00 L 147.00 259.00 L 146.00 259.00 L 145.00 258.00 L 144.00 258.00 L 143.00 257.00 L 143.00 255.00 L 142.00 254.00 L 142.00 250.00 L 141.00 249.00 L 141.00 244.00 L 144.00 241.00 L 144.00 239.00 L 146.00 237.00 L 146.00 235.00 Z"/>
    <path d="M 97.00 180.00 L 92.00 185.00 L 92.00 189.00 L 91.00 190.00 L 91.00 195.00 L 92.00 196.00 L 92.00 197.00 L 95.00 200.00 L 97.00 200.00 L 98.00 201.00 L 102.00 201.00 L 102.00 199.00 L 100.00 197.00 L 100.00 196.00 L 97.00 193.00 L 97.00 188.00 L 98.00 187.00 L 98.00 184.00 L 99.00 183.00 L 99.00 180.00 Z"/>
    <path d="M 189.00 128.00 L 188.00 129.00 L 185.00 129.00 L 184.00 130.00 L 183.00 130.00 L 183.00 131.00 L 182.00 132.00 L 181.00 132.00 L 180.00 133.00 L 177.00 133.00 L 176.00 134.00 L 175.00 134.00 L 174.00 135.00 L 173.00 135.00 L 171.00 137.00 L 170.00 137.00 L 167.00 140.00 L 167.00 142.00 L 166.00 143.00 L 165.00 143.00 L 165.00 144.00 L 164.00 145.00 L 164.00 147.00 L 160.00 151.00 L 160.00 152.00 L 159.00 153.00 L 159.00 154.00 L 158.00 155.00 L 158.00 157.00 L 157.00 158.00 L 157.00 166.00 L 156.00 167.00 L 156.00 169.00 L 157.00 170.00 L 157.00 174.00 L 158.00 175.00 L 158.00 179.00 L 159.00 180.00 L 159.00 182.00 L 160.00 183.00 L 160.00 184.00 L 162.00 186.00 L 163.00 186.00 L 164.00 187.00 L 164.00 189.00 L 165.00 190.00 L 165.00 191.00 L 171.00 197.00 L 171.00 198.00 L 173.00 200.00 L 174.00 200.00 L 176.00 202.00 L 179.00 202.00 L 180.00 203.00 L 181.00 203.00 L 182.00 204.00 L 185.00 204.00 L 187.00 206.00 L 187.00 215.00 L 186.00 216.00 L 186.00 217.00 L 184.00 219.00 L 184.00 220.00 L 183.00 221.00 L 179.00 221.00 L 177.00 219.00 L 176.00 219.00 L 174.00 217.00 L 171.00 217.00 L 170.00 216.00 L 169.00 216.00 L 168.00 215.00 L 167.00 215.00 L 165.00 213.00 L 164.00 213.00 L 160.00 209.00 L 159.00 209.00 L 157.00 207.00 L 155.00 207.00 L 154.00 206.00 L 154.00 204.00 L 152.00 202.00 L 152.00 200.00 L 150.00 198.00 L 149.00 198.00 L 148.00 197.00 L 148.00 194.00 L 146.00 192.00 L 146.00 189.00 L 145.00 188.00 L 145.00 187.00 L 143.00 185.00 L 143.00 180.00 L 142.00 179.00 L 142.00 178.00 L 140.00 176.00 L 140.00 168.00 L 141.00 167.00 L 141.00 156.00 L 142.00 155.00 L 142.00 154.00 L 143.00 153.00 L 143.00 152.00 L 144.00 151.00 L 144.00 146.00 L 146.00 144.00 L 146.00 142.00 L 147.00 141.00 L 147.00 140.00 L 148.00 139.00 L 148.00 137.00 L 145.00 137.00 L 143.00 135.00 L 131.00 135.00 L 129.00 133.00 L 129.00 130.00 L 125.00 130.00 L 125.00 133.00 L 126.00 134.00 L 127.00 134.00 L 128.00 135.00 L 128.00 136.00 L 129.00 137.00 L 134.00 137.00 L 135.00 138.00 L 135.00 140.00 L 137.00 142.00 L 138.00 142.00 L 139.00 143.00 L 139.00 152.00 L 136.00 155.00 L 136.00 160.00 L 137.00 161.00 L 137.00 167.00 L 136.00 168.00 L 136.00 170.00 L 134.00 172.00 L 128.00 172.00 L 127.00 171.00 L 123.00 171.00 L 122.00 172.00 L 120.00 172.00 L 119.00 173.00 L 118.00 173.00 L 117.00 174.00 L 106.00 174.00 L 105.00 175.00 L 104.00 175.00 L 103.00 176.00 L 102.00 176.00 L 102.00 178.00 L 114.00 178.00 L 116.00 176.00 L 124.00 176.00 L 125.00 177.00 L 132.00 177.00 L 135.00 180.00 L 136.00 180.00 L 137.00 181.00 L 138.00 181.00 L 139.00 182.00 L 139.00 186.00 L 138.00 187.00 L 137.00 187.00 L 134.00 190.00 L 133.00 190.00 L 133.00 191.00 L 131.00 193.00 L 130.00 193.00 L 130.00 194.00 L 129.00 195.00 L 125.00 195.00 L 124.00 196.00 L 123.00 196.00 L 121.00 198.00 L 119.00 198.00 L 117.00 200.00 L 112.00 200.00 L 112.00 202.00 L 115.00 202.00 L 116.00 203.00 L 120.00 203.00 L 122.00 201.00 L 124.00 201.00 L 125.00 200.00 L 130.00 200.00 L 131.00 199.00 L 132.00 199.00 L 132.00 197.00 L 134.00 195.00 L 138.00 195.00 L 139.00 196.00 L 139.00 199.00 L 140.00 200.00 L 141.00 200.00 L 144.00 203.00 L 144.00 208.00 L 145.00 208.00 L 146.00 209.00 L 147.00 209.00 L 148.00 210.00 L 149.00 210.00 L 150.00 211.00 L 151.00 211.00 L 152.00 212.00 L 152.00 214.00 L 153.00 215.00 L 153.00 221.00 L 150.00 224.00 L 150.00 227.00 L 156.00 227.00 L 157.00 226.00 L 158.00 226.00 L 158.00 224.00 L 159.00 223.00 L 167.00 223.00 L 168.00 224.00 L 168.00 228.00 L 169.00 229.00 L 169.00 230.00 L 170.00 231.00 L 170.00 235.00 L 167.00 238.00 L 167.00 242.00 L 169.00 244.00 L 171.00 244.00 L 171.00 243.00 L 172.00 242.00 L 172.00 241.00 L 173.00 240.00 L 173.00 234.00 L 174.00 233.00 L 178.00 233.00 L 179.00 232.00 L 187.00 232.00 L 189.00 234.00 L 190.00 234.00 L 191.00 235.00 L 191.00 238.00 L 193.00 238.00 L 194.00 237.00 L 196.00 237.00 L 196.00 233.00 L 197.00 232.00 L 207.00 232.00 L 208.00 233.00 L 210.00 233.00 L 211.00 234.00 L 211.00 235.00 L 212.00 236.00 L 212.00 238.00 L 213.00 239.00 L 213.00 246.00 L 214.00 246.00 L 215.00 247.00 L 215.00 251.00 L 216.00 252.00 L 216.00 256.00 L 220.00 260.00 L 220.00 261.00 L 222.00 263.00 L 225.00 263.00 L 225.00 261.00 L 222.00 258.00 L 222.00 257.00 L 220.00 255.00 L 220.00 253.00 L 219.00 252.00 L 219.00 247.00 L 218.00 246.00 L 218.00 242.00 L 217.00 241.00 L 217.00 228.00 L 218.00 227.00 L 218.00 226.00 L 219.00 225.00 L 223.00 225.00 L 227.00 229.00 L 228.00 229.00 L 231.00 232.00 L 231.00 233.00 L 232.00 234.00 L 233.00 234.00 L 236.00 237.00 L 236.00 239.00 L 237.00 240.00 L 241.00 240.00 L 241.00 237.00 L 238.00 237.00 L 237.00 236.00 L 237.00 230.00 L 235.00 228.00 L 235.00 219.00 L 238.00 216.00 L 238.00 215.00 L 239.00 214.00 L 245.00 214.00 L 245.00 205.00 L 248.00 202.00 L 249.00 202.00 L 250.00 201.00 L 256.00 201.00 L 257.00 202.00 L 258.00 202.00 L 259.00 203.00 L 260.00 203.00 L 262.00 205.00 L 266.00 205.00 L 267.00 206.00 L 271.00 206.00 L 273.00 208.00 L 279.00 208.00 L 281.00 210.00 L 286.00 210.00 L 288.00 208.00 L 293.00 208.00 L 299.00 202.00 L 299.00 194.00 L 298.00 193.00 L 298.00 192.00 L 297.00 192.00 L 296.00 191.00 L 296.00 188.00 L 295.00 188.00 L 294.00 187.00 L 294.00 186.00 L 292.00 184.00 L 291.00 184.00 L 290.00 183.00 L 288.00 183.00 L 288.00 185.00 L 289.00 185.00 L 290.00 186.00 L 290.00 187.00 L 294.00 191.00 L 294.00 196.00 L 293.00 197.00 L 293.00 198.00 L 292.00 199.00 L 292.00 200.00 L 287.00 205.00 L 276.00 205.00 L 275.00 204.00 L 271.00 204.00 L 269.00 202.00 L 268.00 202.00 L 266.00 200.00 L 265.00 200.00 L 264.00 199.00 L 262.00 199.00 L 261.00 198.00 L 259.00 198.00 L 258.00 197.00 L 258.00 196.00 L 253.00 191.00 L 253.00 186.00 L 254.00 185.00 L 255.00 185.00 L 256.00 184.00 L 267.00 184.00 L 268.00 183.00 L 284.00 183.00 L 284.00 181.00 L 282.00 181.00 L 281.00 180.00 L 281.00 179.00 L 280.00 179.00 L 279.00 178.00 L 276.00 178.00 L 275.00 177.00 L 272.00 177.00 L 271.00 176.00 L 268.00 176.00 L 267.00 177.00 L 260.00 177.00 L 259.00 176.00 L 259.00 174.00 L 256.00 171.00 L 256.00 158.00 L 253.00 155.00 L 253.00 154.00 L 252.00 153.00 L 252.00 149.00 L 253.00 148.00 L 253.00 146.00 L 254.00 145.00 L 257.00 145.00 L 258.00 144.00 L 259.00 144.00 L 259.00 140.00 L 260.00 139.00 L 261.00 139.00 L 261.00 137.00 L 259.00 137.00 L 258.00 138.00 L 253.00 138.00 L 251.00 140.00 L 251.00 142.00 L 250.00 143.00 L 247.00 143.00 L 247.00 147.00 L 249.00 149.00 L 249.00 155.00 L 250.00 156.00 L 250.00 157.00 L 251.00 158.00 L 251.00 176.00 L 249.00 178.00 L 249.00 187.00 L 248.00 188.00 L 248.00 189.00 L 246.00 191.00 L 246.00 192.00 L 245.00 193.00 L 245.00 194.00 L 244.00 195.00 L 244.00 197.00 L 239.00 202.00 L 239.00 204.00 L 238.00 205.00 L 236.00 205.00 L 236.00 206.00 L 235.00 207.00 L 235.00 208.00 L 232.00 211.00 L 230.00 211.00 L 226.00 215.00 L 221.00 215.00 L 220.00 214.00 L 219.00 214.00 L 216.00 211.00 L 216.00 210.00 L 215.00 209.00 L 215.00 208.00 L 214.00 207.00 L 214.00 202.00 L 217.00 199.00 L 217.00 197.00 L 218.00 196.00 L 223.00 196.00 L 225.00 194.00 L 225.00 193.00 L 226.00 192.00 L 227.00 192.00 L 227.00 191.00 L 229.00 189.00 L 229.00 181.00 L 231.00 179.00 L 233.00 179.00 L 234.00 178.00 L 234.00 174.00 L 235.00 173.00 L 235.00 161.00 L 234.00 160.00 L 234.00 156.00 L 233.00 155.00 L 233.00 154.00 L 232.00 153.00 L 232.00 152.00 L 231.00 151.00 L 231.00 149.00 L 230.00 148.00 L 230.00 146.00 L 227.00 143.00 L 226.00 143.00 L 225.00 142.00 L 225.00 141.00 L 224.00 140.00 L 224.00 139.00 L 222.00 137.00 L 218.00 137.00 L 217.00 136.00 L 216.00 136.00 L 215.00 135.00 L 215.00 133.00 L 214.00 132.00 L 213.00 132.00 L 211.00 130.00 L 209.00 130.00 L 208.00 129.00 L 204.00 129.00 L 203.00 128.00 Z"/>
    <path d="M 192.00 154.00 L 196.00 154.00 L 197.00 155.00 L 197.00 156.00 L 202.00 156.00 L 204.00 158.00 L 206.00 158.00 L 207.00 159.00 L 208.00 159.00 L 210.00 161.00 L 212.00 161.00 L 213.00 162.00 L 213.00 164.00 L 214.00 164.00 L 215.00 165.00 L 215.00 170.00 L 214.00 171.00 L 214.00 176.00 L 213.00 177.00 L 213.00 180.00 L 209.00 184.00 L 208.00 184.00 L 207.00 185.00 L 207.00 187.00 L 206.00 188.00 L 203.00 188.00 L 202.00 189.00 L 194.00 189.00 L 193.00 188.00 L 185.00 188.00 L 183.00 186.00 L 183.00 183.00 L 182.00 183.00 L 181.00 182.00 L 180.00 182.00 L 179.00 181.00 L 179.00 165.00 L 181.00 163.00 L 181.00 162.00 L 187.00 156.00 L 190.00 156.00 Z"/>
    <path d="M 253.00 113.00 L 251.00 115.00 L 250.00 115.00 L 245.00 120.00 L 244.00 120.00 L 243.00 121.00 L 242.00 121.00 L 242.00 123.00 L 241.00 124.00 L 233.00 124.00 L 233.00 126.00 L 234.00 127.00 L 235.00 127.00 L 236.00 128.00 L 236.00 129.00 L 237.00 129.00 L 238.00 130.00 L 238.00 131.00 L 240.00 133.00 L 243.00 133.00 L 243.00 127.00 L 244.00 126.00 L 247.00 126.00 L 247.00 122.00 L 249.00 120.00 L 253.00 120.00 L 253.00 117.00 L 255.00 115.00 L 255.00 113.00 Z"/>
    <path d="M 143.00 113.00 L 143.00 116.00 L 144.00 117.00 L 144.00 118.00 L 146.00 120.00 L 149.00 120.00 L 150.00 121.00 L 150.00 129.00 L 151.00 130.00 L 151.00 133.00 L 153.00 133.00 L 153.00 132.00 L 159.00 126.00 L 159.00 124.00 L 158.00 124.00 L 156.00 122.00 L 155.00 122.00 L 153.00 120.00 L 152.00 120.00 L 151.00 119.00 L 151.00 117.00 L 150.00 116.00 L 147.00 116.00 L 146.00 115.00 L 146.00 113.00 Z"/>
    <path d="M 279.00 108.00 L 279.00 110.00 L 278.00 111.00 L 276.00 111.00 L 276.00 113.00 L 277.00 113.00 L 278.00 114.00 L 278.00 123.00 L 282.00 123.00 L 284.00 121.00 L 285.00 121.00 L 285.00 119.00 L 286.00 118.00 L 286.00 114.00 L 284.00 112.00 L 284.00 110.00 L 282.00 108.00 Z"/>
    <path d="M 121.00 100.00 L 120.00 101.00 L 118.00 101.00 L 116.00 103.00 L 115.00 103.00 L 114.00 104.00 L 113.00 104.00 L 112.00 105.00 L 111.00 105.00 L 111.00 110.00 L 112.00 111.00 L 112.00 118.00 L 113.00 119.00 L 113.00 120.00 L 116.00 120.00 L 116.00 112.00 L 117.00 111.00 L 117.00 109.00 L 121.00 105.00 L 126.00 105.00 L 127.00 106.00 L 132.00 106.00 L 133.00 107.00 L 133.00 108.00 L 136.00 108.00 L 139.00 111.00 L 139.00 112.00 L 141.00 112.00 L 141.00 109.00 L 136.00 104.00 L 132.00 104.00 L 131.00 103.00 L 131.00 101.00 L 127.00 101.00 L 126.00 100.00 Z"/>
    <path d="M 208.00 79.00 L 208.00 91.00 L 209.00 92.00 L 209.00 96.00 L 207.00 98.00 L 207.00 101.00 L 206.00 102.00 L 205.00 102.00 L 204.00 103.00 L 204.00 109.00 L 203.00 110.00 L 203.00 113.00 L 207.00 113.00 L 208.00 112.00 L 209.00 112.00 L 209.00 109.00 L 210.00 108.00 L 210.00 101.00 L 212.00 99.00 L 212.00 97.00 L 213.00 96.00 L 213.00 86.00 L 212.00 85.00 L 212.00 80.00 L 211.00 79.00 Z"/>
    <path d="M 138.00 75.00 L 138.00 76.00 L 137.00 77.00 L 130.00 77.00 L 130.00 79.00 L 135.00 79.00 L 138.00 82.00 L 140.00 82.00 L 143.00 85.00 L 146.00 85.00 L 146.00 77.00 L 144.00 77.00 L 143.00 76.00 L 142.00 76.00 L 141.00 75.00 Z"/>
    <path d="M 160.00 72.00 L 159.00 73.00 L 159.00 82.00 L 158.00 83.00 L 158.00 84.00 L 157.00 85.00 L 156.00 85.00 L 155.00 86.00 L 154.00 86.00 L 153.00 87.00 L 153.00 88.00 L 152.00 89.00 L 152.00 91.00 L 154.00 91.00 L 155.00 92.00 L 155.00 95.00 L 156.00 96.00 L 157.00 96.00 L 159.00 98.00 L 160.00 98.00 L 161.00 99.00 L 161.00 100.00 L 163.00 102.00 L 163.00 103.00 L 165.00 103.00 L 165.00 100.00 L 164.00 99.00 L 164.00 98.00 L 163.00 97.00 L 163.00 96.00 L 162.00 95.00 L 162.00 78.00 L 163.00 77.00 L 163.00 72.00 Z"/>
    <path d="M 196.00 64.00 L 195.00 65.00 L 192.00 65.00 L 192.00 66.00 L 191.00 67.00 L 191.00 68.00 L 188.00 71.00 L 188.00 73.00 L 187.00 74.00 L 185.00 74.00 L 185.00 81.00 L 184.00 82.00 L 184.00 85.00 L 183.00 86.00 L 183.00 108.00 L 182.00 109.00 L 182.00 110.00 L 181.00 111.00 L 181.00 113.00 L 188.00 113.00 L 189.00 112.00 L 192.00 112.00 L 192.00 106.00 L 191.00 105.00 L 191.00 104.00 L 189.00 102.00 L 189.00 100.00 L 188.00 99.00 L 188.00 98.00 L 187.00 97.00 L 187.00 93.00 L 186.00 92.00 L 186.00 85.00 L 187.00 84.00 L 187.00 74.00 L 188.00 73.00 L 194.00 73.00 L 195.00 72.00 L 203.00 72.00 L 204.00 73.00 L 204.00 74.00 L 206.00 74.00 L 206.00 73.00 L 207.00 72.00 L 207.00 70.00 L 205.00 68.00 L 204.00 68.00 L 202.00 66.00 L 201.00 66.00 L 199.00 64.00 Z"/>
    <path d="M 230.00 63.00 L 230.00 68.00 L 231.00 69.00 L 231.00 77.00 L 232.00 78.00 L 232.00 91.00 L 231.00 92.00 L 231.00 96.00 L 230.00 97.00 L 230.00 99.00 L 232.00 99.00 L 233.00 100.00 L 233.00 103.00 L 237.00 103.00 L 238.00 102.00 L 238.00 101.00 L 240.00 99.00 L 240.00 98.00 L 242.00 96.00 L 243.00 96.00 L 246.00 93.00 L 247.00 93.00 L 251.00 89.00 L 252.00 89.00 L 253.00 88.00 L 255.00 88.00 L 255.00 85.00 L 256.00 84.00 L 261.00 84.00 L 263.00 82.00 L 265.00 82.00 L 266.00 81.00 L 282.00 81.00 L 283.00 82.00 L 285.00 82.00 L 286.00 81.00 L 290.00 81.00 L 295.00 86.00 L 297.00 86.00 L 298.00 87.00 L 299.00 87.00 L 300.00 88.00 L 300.00 89.00 L 301.00 90.00 L 302.00 90.00 L 304.00 92.00 L 304.00 95.00 L 305.00 96.00 L 308.00 96.00 L 309.00 97.00 L 309.00 101.00 L 308.00 102.00 L 308.00 105.00 L 309.00 106.00 L 309.00 114.00 L 308.00 115.00 L 308.00 124.00 L 307.00 125.00 L 307.00 126.00 L 306.00 127.00 L 306.00 128.00 L 305.00 129.00 L 305.00 132.00 L 308.00 132.00 L 308.00 128.00 L 309.00 127.00 L 309.00 125.00 L 310.00 124.00 L 310.00 123.00 L 312.00 121.00 L 312.00 113.00 L 313.00 112.00 L 313.00 104.00 L 311.00 102.00 L 311.00 93.00 L 309.00 91.00 L 309.00 88.00 L 308.00 87.00 L 306.00 87.00 L 305.00 86.00 L 305.00 85.00 L 304.00 84.00 L 304.00 83.00 L 303.00 82.00 L 303.00 81.00 L 302.00 80.00 L 299.00 80.00 L 297.00 78.00 L 297.00 77.00 L 296.00 77.00 L 295.00 76.00 L 293.00 76.00 L 292.00 77.00 L 288.00 77.00 L 287.00 76.00 L 287.00 74.00 L 285.00 74.00 L 284.00 73.00 L 277.00 73.00 L 276.00 74.00 L 268.00 74.00 L 267.00 75.00 L 266.00 75.00 L 265.00 76.00 L 261.00 76.00 L 260.00 77.00 L 258.00 77.00 L 256.00 79.00 L 252.00 79.00 L 251.00 80.00 L 248.00 80.00 L 246.00 82.00 L 246.00 84.00 L 245.00 85.00 L 238.00 85.00 L 237.00 84.00 L 237.00 78.00 L 238.00 77.00 L 238.00 75.00 L 239.00 74.00 L 239.00 73.00 L 240.00 72.00 L 241.00 72.00 L 242.00 71.00 L 242.00 69.00 L 243.00 68.00 L 243.00 65.00 L 238.00 65.00 L 236.00 63.00 Z"/>
    <path d="M 193.00 0.00 L 193.00 4.00 L 194.00 4.00 L 195.00 5.00 L 196.00 5.00 L 197.00 6.00 L 198.00 6.00 L 201.00 9.00 L 203.00 9.00 L 204.00 10.00 L 205.00 10.00 L 206.00 11.00 L 209.00 11.00 L 210.00 12.00 L 212.00 12.00 L 215.00 15.00 L 216.00 15.00 L 217.00 16.00 L 223.00 16.00 L 228.00 21.00 L 229.00 21.00 L 230.00 22.00 L 231.00 22.00 L 232.00 23.00 L 235.00 23.00 L 237.00 25.00 L 237.00 26.00 L 238.00 26.00 L 239.00 27.00 L 240.00 27.00 L 241.00 28.00 L 242.00 28.00 L 243.00 29.00 L 243.00 31.00 L 245.00 33.00 L 246.00 33.00 L 247.00 34.00 L 247.00 36.00 L 248.00 37.00 L 248.00 56.00 L 250.00 56.00 L 251.00 57.00 L 253.00 57.00 L 256.00 54.00 L 256.00 53.00 L 258.00 51.00 L 261.00 51.00 L 262.00 50.00 L 264.00 50.00 L 265.00 49.00 L 267.00 49.00 L 269.00 47.00 L 271.00 47.00 L 272.00 46.00 L 275.00 46.00 L 276.00 45.00 L 284.00 45.00 L 285.00 44.00 L 288.00 44.00 L 289.00 43.00 L 291.00 43.00 L 292.00 42.00 L 295.00 42.00 L 296.00 41.00 L 305.00 41.00 L 306.00 40.00 L 308.00 40.00 L 310.00 38.00 L 313.00 38.00 L 314.00 37.00 L 322.00 37.00 L 323.00 38.00 L 323.00 40.00 L 324.00 41.00 L 324.00 48.00 L 326.00 50.00 L 326.00 54.00 L 327.00 54.00 L 328.00 55.00 L 329.00 55.00 L 330.00 56.00 L 330.00 61.00 L 333.00 64.00 L 333.00 72.00 L 334.00 72.00 L 335.00 73.00 L 335.00 75.00 L 336.00 76.00 L 336.00 79.00 L 337.00 80.00 L 337.00 81.00 L 339.00 81.00 L 340.00 82.00 L 340.00 84.00 L 341.00 85.00 L 341.00 88.00 L 342.00 89.00 L 342.00 92.00 L 344.00 94.00 L 344.00 112.00 L 343.00 113.00 L 343.00 114.00 L 342.00 115.00 L 342.00 117.00 L 340.00 119.00 L 340.00 122.00 L 333.00 129.00 L 333.00 130.00 L 331.00 132.00 L 330.00 132.00 L 329.00 133.00 L 329.00 134.00 L 328.00 135.00 L 325.00 135.00 L 325.00 136.00 L 323.00 138.00 L 321.00 138.00 L 320.00 139.00 L 319.00 139.00 L 318.00 140.00 L 318.00 141.00 L 317.00 142.00 L 314.00 142.00 L 312.00 144.00 L 311.00 144.00 L 310.00 145.00 L 306.00 145.00 L 305.00 144.00 L 305.00 138.00 L 304.00 137.00 L 304.00 136.00 L 301.00 136.00 L 299.00 138.00 L 298.00 138.00 L 298.00 139.00 L 297.00 140.00 L 297.00 144.00 L 296.00 145.00 L 294.00 145.00 L 293.00 146.00 L 293.00 147.00 L 291.00 149.00 L 287.00 149.00 L 287.00 151.00 L 286.00 152.00 L 283.00 152.00 L 282.00 153.00 L 281.00 153.00 L 279.00 155.00 L 278.00 155.00 L 277.00 156.00 L 273.00 156.00 L 273.00 158.00 L 275.00 158.00 L 276.00 159.00 L 277.00 159.00 L 278.00 160.00 L 288.00 160.00 L 289.00 161.00 L 292.00 161.00 L 293.00 160.00 L 297.00 160.00 L 299.00 162.00 L 299.00 163.00 L 301.00 163.00 L 302.00 164.00 L 303.00 164.00 L 307.00 168.00 L 308.00 168.00 L 309.00 169.00 L 312.00 169.00 L 314.00 171.00 L 314.00 172.00 L 315.00 172.00 L 317.00 174.00 L 318.00 174.00 L 319.00 175.00 L 319.00 178.00 L 321.00 180.00 L 321.00 182.00 L 322.00 183.00 L 322.00 184.00 L 324.00 184.00 L 325.00 185.00 L 325.00 191.00 L 327.00 193.00 L 327.00 197.00 L 326.00 198.00 L 326.00 201.00 L 325.00 202.00 L 325.00 204.00 L 324.00 205.00 L 324.00 208.00 L 323.00 209.00 L 323.00 214.00 L 322.00 215.00 L 320.00 215.00 L 320.00 219.00 L 319.00 220.00 L 317.00 220.00 L 316.00 221.00 L 316.00 222.00 L 315.00 223.00 L 313.00 223.00 L 313.00 225.00 L 312.00 226.00 L 308.00 226.00 L 308.00 227.00 L 307.00 228.00 L 303.00 228.00 L 302.00 229.00 L 297.00 229.00 L 296.00 230.00 L 293.00 230.00 L 292.00 231.00 L 288.00 231.00 L 287.00 230.00 L 274.00 230.00 L 273.00 229.00 L 268.00 229.00 L 266.00 227.00 L 265.00 227.00 L 264.00 226.00 L 261.00 226.00 L 259.00 224.00 L 256.00 224.00 L 256.00 227.00 L 257.00 228.00 L 259.00 228.00 L 260.00 229.00 L 260.00 232.00 L 261.00 232.00 L 263.00 234.00 L 263.00 237.00 L 264.00 238.00 L 264.00 242.00 L 265.00 243.00 L 266.00 243.00 L 267.00 244.00 L 267.00 246.00 L 268.00 247.00 L 268.00 251.00 L 269.00 252.00 L 269.00 267.00 L 270.00 268.00 L 272.00 268.00 L 272.00 265.00 L 273.00 264.00 L 273.00 261.00 L 274.00 260.00 L 274.00 259.00 L 275.00 258.00 L 275.00 252.00 L 276.00 251.00 L 276.00 249.00 L 275.00 249.00 L 274.00 248.00 L 273.00 248.00 L 271.00 246.00 L 271.00 242.00 L 272.00 241.00 L 278.00 241.00 L 279.00 240.00 L 281.00 240.00 L 282.00 239.00 L 290.00 239.00 L 292.00 237.00 L 294.00 237.00 L 295.00 236.00 L 300.00 236.00 L 302.00 234.00 L 305.00 234.00 L 306.00 233.00 L 307.00 233.00 L 308.00 232.00 L 309.00 232.00 L 310.00 231.00 L 311.00 231.00 L 316.00 226.00 L 316.00 224.00 L 317.00 223.00 L 321.00 223.00 L 321.00 222.00 L 324.00 219.00 L 325.00 219.00 L 326.00 218.00 L 326.00 217.00 L 328.00 215.00 L 328.00 213.00 L 327.00 212.00 L 327.00 207.00 L 328.00 206.00 L 332.00 206.00 L 332.00 196.00 L 330.00 194.00 L 330.00 193.00 L 329.00 192.00 L 329.00 188.00 L 330.00 187.00 L 330.00 184.00 L 328.00 184.00 L 327.00 183.00 L 327.00 180.00 L 326.00 179.00 L 326.00 177.00 L 325.00 176.00 L 324.00 176.00 L 323.00 175.00 L 323.00 174.00 L 322.00 173.00 L 322.00 172.00 L 319.00 169.00 L 319.00 168.00 L 318.00 168.00 L 317.00 167.00 L 316.00 167.00 L 315.00 166.00 L 315.00 164.00 L 314.00 163.00 L 310.00 163.00 L 309.00 162.00 L 309.00 160.00 L 306.00 157.00 L 306.00 153.00 L 307.00 152.00 L 307.00 151.00 L 308.00 150.00 L 310.00 150.00 L 311.00 149.00 L 315.00 149.00 L 316.00 148.00 L 321.00 148.00 L 322.00 149.00 L 327.00 149.00 L 328.00 150.00 L 329.00 150.00 L 330.00 151.00 L 335.00 151.00 L 336.00 152.00 L 340.00 152.00 L 343.00 155.00 L 344.00 155.00 L 345.00 156.00 L 348.00 156.00 L 349.00 157.00 L 349.00 159.00 L 351.00 161.00 L 352.00 161.00 L 356.00 165.00 L 356.00 166.00 L 357.00 167.00 L 357.00 168.00 L 358.00 169.00 L 358.00 170.00 L 359.00 171.00 L 360.00 171.00 L 361.00 172.00 L 361.00 175.00 L 362.00 176.00 L 362.00 177.00 L 363.00 178.00 L 363.00 180.00 L 364.00 181.00 L 364.00 183.00 L 365.00 184.00 L 366.00 184.00 L 367.00 185.00 L 367.00 191.00 L 368.00 192.00 L 368.00 193.00 L 371.00 193.00 L 372.00 194.00 L 372.00 199.00 L 373.00 200.00 L 374.00 200.00 L 375.00 201.00 L 375.00 203.00 L 376.00 204.00 L 376.00 205.00 L 377.00 206.00 L 377.00 207.00 L 378.00 207.00 L 380.00 209.00 L 380.00 210.00 L 381.00 211.00 L 381.00 215.00 L 379.00 217.00 L 378.00 217.00 L 377.00 218.00 L 377.00 221.00 L 376.00 222.00 L 372.00 222.00 L 371.00 223.00 L 368.00 223.00 L 367.00 224.00 L 366.00 224.00 L 361.00 229.00 L 359.00 229.00 L 357.00 231.00 L 357.00 232.00 L 355.00 234.00 L 352.00 234.00 L 351.00 235.00 L 351.00 236.00 L 348.00 239.00 L 347.00 239.00 L 342.00 244.00 L 342.00 245.00 L 341.00 246.00 L 339.00 246.00 L 337.00 248.00 L 335.00 248.00 L 333.00 250.00 L 333.00 251.00 L 332.00 252.00 L 329.00 252.00 L 328.00 253.00 L 327.00 253.00 L 326.00 254.00 L 325.00 254.00 L 324.00 255.00 L 323.00 255.00 L 322.00 256.00 L 321.00 256.00 L 320.00 257.00 L 317.00 257.00 L 316.00 258.00 L 298.00 258.00 L 297.00 257.00 L 296.00 257.00 L 295.00 256.00 L 290.00 256.00 L 289.00 255.00 L 286.00 255.00 L 286.00 258.00 L 288.00 260.00 L 288.00 261.00 L 289.00 262.00 L 289.00 263.00 L 290.00 264.00 L 291.00 264.00 L 294.00 267.00 L 294.00 272.00 L 293.00 273.00 L 293.00 274.00 L 292.00 275.00 L 292.00 280.00 L 291.00 281.00 L 291.00 282.00 L 290.00 283.00 L 290.00 288.00 L 288.00 290.00 L 288.00 291.00 L 287.00 292.00 L 287.00 299.00 L 286.00 300.00 L 284.00 300.00 L 284.00 303.00 L 283.00 304.00 L 281.00 304.00 L 278.00 307.00 L 278.00 309.00 L 277.00 310.00 L 277.00 312.00 L 275.00 314.00 L 274.00 314.00 L 273.00 315.00 L 273.00 317.00 L 272.00 318.00 L 272.00 321.00 L 270.00 323.00 L 270.00 325.00 L 269.00 326.00 L 269.00 330.00 L 268.00 331.00 L 260.00 331.00 L 258.00 329.00 L 257.00 329.00 L 256.00 328.00 L 254.00 328.00 L 253.00 327.00 L 248.00 327.00 L 247.00 326.00 L 246.00 326.00 L 245.00 325.00 L 233.00 325.00 L 232.00 324.00 L 225.00 324.00 L 224.00 323.00 L 223.00 323.00 L 222.00 322.00 L 215.00 322.00 L 214.00 321.00 L 212.00 321.00 L 211.00 320.00 L 209.00 320.00 L 208.00 319.00 L 206.00 319.00 L 205.00 318.00 L 204.00 318.00 L 201.00 315.00 L 196.00 315.00 L 195.00 314.00 L 195.00 313.00 L 194.00 312.00 L 193.00 312.00 L 190.00 309.00 L 190.00 304.00 L 185.00 304.00 L 185.00 305.00 L 184.00 306.00 L 184.00 308.00 L 182.00 310.00 L 182.00 311.00 L 177.00 316.00 L 176.00 316.00 L 172.00 320.00 L 169.00 320.00 L 168.00 321.00 L 168.00 322.00 L 167.00 323.00 L 166.00 323.00 L 164.00 325.00 L 162.00 325.00 L 161.00 326.00 L 160.00 326.00 L 159.00 327.00 L 156.00 327.00 L 155.00 328.00 L 153.00 328.00 L 152.00 329.00 L 151.00 329.00 L 149.00 331.00 L 145.00 331.00 L 144.00 332.00 L 143.00 332.00 L 142.00 333.00 L 141.00 333.00 L 140.00 334.00 L 139.00 334.00 L 138.00 335.00 L 137.00 335.00 L 136.00 336.00 L 134.00 336.00 L 132.00 338.00 L 128.00 338.00 L 124.00 342.00 L 124.00 344.00 L 383.00 344.00 L 383.00 0.00 Z"/>
    <path d="M 0.00 0.00 L 0.00 344.00 L 115.00 344.00 L 115.00 343.00 L 113.00 341.00 L 113.00 336.00 L 112.00 335.00 L 112.00 334.00 L 110.00 332.00 L 110.00 330.00 L 108.00 328.00 L 107.00 328.00 L 105.00 326.00 L 105.00 324.00 L 104.00 323.00 L 104.00 321.00 L 102.00 321.00 L 100.00 319.00 L 100.00 317.00 L 98.00 315.00 L 97.00 315.00 L 96.00 314.00 L 96.00 313.00 L 94.00 311.00 L 93.00 311.00 L 90.00 308.00 L 90.00 304.00 L 89.00 304.00 L 88.00 303.00 L 88.00 301.00 L 87.00 300.00 L 84.00 300.00 L 83.00 299.00 L 83.00 293.00 L 82.00 293.00 L 81.00 292.00 L 81.00 287.00 L 80.00 286.00 L 80.00 285.00 L 79.00 284.00 L 79.00 283.00 L 78.00 282.00 L 78.00 270.00 L 80.00 268.00 L 80.00 267.00 L 81.00 266.00 L 81.00 264.00 L 82.00 263.00 L 82.00 260.00 L 83.00 259.00 L 83.00 257.00 L 84.00 256.00 L 86.00 256.00 L 86.00 254.00 L 83.00 254.00 L 83.00 256.00 L 82.00 257.00 L 78.00 257.00 L 76.00 255.00 L 74.00 255.00 L 73.00 256.00 L 63.00 256.00 L 62.00 255.00 L 60.00 255.00 L 59.00 254.00 L 58.00 254.00 L 56.00 252.00 L 54.00 252.00 L 53.00 251.00 L 52.00 251.00 L 50.00 249.00 L 49.00 249.00 L 48.00 248.00 L 44.00 248.00 L 43.00 247.00 L 42.00 247.00 L 40.00 245.00 L 40.00 243.00 L 38.00 241.00 L 37.00 241.00 L 36.00 240.00 L 35.00 240.00 L 34.00 239.00 L 32.00 239.00 L 31.00 238.00 L 31.00 237.00 L 30.00 236.00 L 29.00 236.00 L 28.00 235.00 L 25.00 235.00 L 24.00 234.00 L 24.00 232.00 L 22.00 230.00 L 20.00 230.00 L 19.00 229.00 L 17.00 229.00 L 14.00 226.00 L 10.00 226.00 L 8.00 224.00 L 8.00 219.00 L 11.00 216.00 L 11.00 215.00 L 13.00 213.00 L 13.00 210.00 L 16.00 207.00 L 16.00 203.00 L 17.00 202.00 L 18.00 202.00 L 18.00 200.00 L 19.00 199.00 L 19.00 195.00 L 20.00 194.00 L 20.00 191.00 L 21.00 190.00 L 21.00 189.00 L 23.00 187.00 L 23.00 186.00 L 24.00 185.00 L 24.00 170.00 L 25.00 169.00 L 28.00 169.00 L 29.00 168.00 L 30.00 168.00 L 30.00 167.00 L 31.00 166.00 L 31.00 164.00 L 33.00 162.00 L 33.00 161.00 L 34.00 160.00 L 34.00 158.00 L 36.00 156.00 L 38.00 156.00 L 39.00 155.00 L 40.00 155.00 L 40.00 154.00 L 43.00 151.00 L 47.00 151.00 L 48.00 150.00 L 55.00 150.00 L 56.00 149.00 L 63.00 149.00 L 64.00 150.00 L 67.00 150.00 L 68.00 151.00 L 72.00 151.00 L 73.00 152.00 L 74.00 152.00 L 75.00 153.00 L 80.00 153.00 L 81.00 154.00 L 81.00 158.00 L 80.00 159.00 L 79.00 159.00 L 76.00 162.00 L 74.00 162.00 L 71.00 165.00 L 71.00 167.00 L 70.00 168.00 L 66.00 168.00 L 60.00 174.00 L 60.00 175.00 L 57.00 178.00 L 56.00 178.00 L 55.00 179.00 L 55.00 182.00 L 54.00 183.00 L 54.00 184.00 L 52.00 186.00 L 52.00 192.00 L 51.00 193.00 L 51.00 204.00 L 52.00 205.00 L 52.00 206.00 L 53.00 206.00 L 54.00 207.00 L 54.00 212.00 L 55.00 213.00 L 55.00 215.00 L 62.00 222.00 L 62.00 223.00 L 63.00 223.00 L 64.00 224.00 L 65.00 224.00 L 67.00 226.00 L 67.00 227.00 L 68.00 227.00 L 70.00 229.00 L 71.00 229.00 L 73.00 231.00 L 77.00 231.00 L 80.00 234.00 L 85.00 234.00 L 86.00 235.00 L 94.00 235.00 L 95.00 236.00 L 100.00 236.00 L 101.00 237.00 L 101.00 243.00 L 102.00 244.00 L 102.00 254.00 L 103.00 255.00 L 103.00 264.00 L 104.00 265.00 L 104.00 266.00 L 105.00 267.00 L 105.00 270.00 L 106.00 271.00 L 106.00 274.00 L 107.00 275.00 L 107.00 276.00 L 109.00 278.00 L 109.00 279.00 L 111.00 281.00 L 111.00 282.00 L 114.00 285.00 L 114.00 286.00 L 117.00 289.00 L 123.00 289.00 L 124.00 290.00 L 124.00 292.00 L 125.00 292.00 L 126.00 293.00 L 126.00 295.00 L 127.00 296.00 L 129.00 296.00 L 130.00 297.00 L 132.00 297.00 L 133.00 298.00 L 134.00 298.00 L 135.00 299.00 L 138.00 299.00 L 139.00 300.00 L 148.00 300.00 L 150.00 298.00 L 156.00 298.00 L 157.00 297.00 L 162.00 297.00 L 163.00 296.00 L 164.00 296.00 L 165.00 295.00 L 166.00 295.00 L 167.00 294.00 L 168.00 294.00 L 170.00 292.00 L 173.00 292.00 L 175.00 290.00 L 176.00 290.00 L 177.00 289.00 L 182.00 289.00 L 182.00 286.00 L 181.00 285.00 L 181.00 281.00 L 183.00 279.00 L 188.00 279.00 L 189.00 280.00 L 191.00 280.00 L 192.00 281.00 L 193.00 281.00 L 197.00 285.00 L 198.00 285.00 L 199.00 286.00 L 203.00 286.00 L 204.00 287.00 L 208.00 287.00 L 209.00 288.00 L 212.00 288.00 L 213.00 289.00 L 213.00 291.00 L 214.00 292.00 L 218.00 292.00 L 218.00 290.00 L 217.00 290.00 L 216.00 289.00 L 216.00 288.00 L 215.00 287.00 L 214.00 287.00 L 213.00 286.00 L 213.00 285.00 L 212.00 285.00 L 210.00 283.00 L 209.00 283.00 L 208.00 282.00 L 208.00 281.00 L 207.00 280.00 L 207.00 278.00 L 205.00 276.00 L 204.00 276.00 L 202.00 274.00 L 202.00 271.00 L 201.00 270.00 L 201.00 269.00 L 200.00 268.00 L 200.00 266.00 L 198.00 264.00 L 198.00 263.00 L 197.00 262.00 L 197.00 258.00 L 196.00 257.00 L 196.00 253.00 L 195.00 252.00 L 195.00 248.00 L 194.00 247.00 L 194.00 246.00 L 190.00 246.00 L 190.00 247.00 L 189.00 248.00 L 189.00 252.00 L 187.00 254.00 L 186.00 254.00 L 186.00 255.00 L 185.00 256.00 L 185.00 258.00 L 184.00 259.00 L 184.00 262.00 L 183.00 263.00 L 183.00 265.00 L 182.00 266.00 L 182.00 270.00 L 181.00 271.00 L 179.00 271.00 L 178.00 272.00 L 178.00 275.00 L 176.00 277.00 L 175.00 277.00 L 175.00 278.00 L 174.00 279.00 L 172.00 279.00 L 169.00 282.00 L 169.00 283.00 L 165.00 287.00 L 163.00 287.00 L 162.00 288.00 L 162.00 289.00 L 161.00 290.00 L 156.00 290.00 L 155.00 291.00 L 154.00 291.00 L 153.00 292.00 L 140.00 292.00 L 139.00 291.00 L 135.00 291.00 L 134.00 290.00 L 133.00 290.00 L 132.00 289.00 L 131.00 289.00 L 130.00 288.00 L 129.00 288.00 L 127.00 286.00 L 126.00 286.00 L 124.00 284.00 L 123.00 284.00 L 122.00 283.00 L 122.00 281.00 L 121.00 280.00 L 121.00 279.00 L 117.00 275.00 L 117.00 272.00 L 116.00 271.00 L 116.00 268.00 L 115.00 267.00 L 115.00 265.00 L 114.00 264.00 L 114.00 255.00 L 115.00 254.00 L 115.00 247.00 L 116.00 246.00 L 116.00 243.00 L 117.00 242.00 L 117.00 240.00 L 118.00 239.00 L 118.00 237.00 L 119.00 236.00 L 119.00 235.00 L 121.00 233.00 L 121.00 232.00 L 122.00 231.00 L 122.00 230.00 L 123.00 229.00 L 123.00 228.00 L 124.00 227.00 L 124.00 224.00 L 126.00 222.00 L 126.00 220.00 L 123.00 220.00 L 121.00 222.00 L 119.00 222.00 L 116.00 225.00 L 111.00 225.00 L 110.00 224.00 L 106.00 224.00 L 105.00 225.00 L 96.00 225.00 L 95.00 224.00 L 91.00 224.00 L 90.00 223.00 L 85.00 223.00 L 83.00 221.00 L 82.00 221.00 L 81.00 220.00 L 80.00 220.00 L 79.00 219.00 L 78.00 219.00 L 75.00 216.00 L 73.00 216.00 L 71.00 214.00 L 71.00 212.00 L 69.00 210.00 L 69.00 208.00 L 67.00 206.00 L 67.00 205.00 L 66.00 204.00 L 66.00 203.00 L 65.00 202.00 L 65.00 195.00 L 64.00 194.00 L 64.00 189.00 L 63.00 188.00 L 63.00 184.00 L 64.00 183.00 L 66.00 183.00 L 67.00 182.00 L 67.00 180.00 L 68.00 179.00 L 68.00 175.00 L 69.00 174.00 L 70.00 174.00 L 72.00 172.00 L 72.00 171.00 L 73.00 170.00 L 74.00 170.00 L 77.00 167.00 L 77.00 165.00 L 78.00 164.00 L 80.00 164.00 L 81.00 163.00 L 82.00 163.00 L 84.00 161.00 L 85.00 161.00 L 87.00 159.00 L 91.00 159.00 L 92.00 158.00 L 93.00 158.00 L 94.00 157.00 L 95.00 157.00 L 96.00 156.00 L 98.00 156.00 L 99.00 155.00 L 106.00 155.00 L 108.00 153.00 L 111.00 153.00 L 113.00 151.00 L 115.00 151.00 L 115.00 149.00 L 114.00 148.00 L 113.00 148.00 L 111.00 146.00 L 109.00 146.00 L 105.00 142.00 L 101.00 142.00 L 100.00 141.00 L 100.00 137.00 L 99.00 136.00 L 98.00 136.00 L 96.00 134.00 L 95.00 134.00 L 93.00 132.00 L 93.00 129.00 L 91.00 127.00 L 91.00 126.00 L 90.00 126.00 L 88.00 124.00 L 88.00 123.00 L 86.00 121.00 L 86.00 113.00 L 85.00 112.00 L 85.00 101.00 L 83.00 101.00 L 81.00 103.00 L 81.00 104.00 L 80.00 105.00 L 80.00 107.00 L 79.00 108.00 L 79.00 118.00 L 81.00 120.00 L 81.00 131.00 L 82.00 132.00 L 82.00 133.00 L 83.00 134.00 L 83.00 136.00 L 84.00 137.00 L 85.00 137.00 L 86.00 138.00 L 86.00 140.00 L 87.00 141.00 L 87.00 145.00 L 89.00 147.00 L 89.00 151.00 L 87.00 153.00 L 82.00 153.00 L 81.00 152.00 L 81.00 151.00 L 80.00 150.00 L 76.00 150.00 L 75.00 149.00 L 71.00 149.00 L 70.00 148.00 L 70.00 145.00 L 67.00 145.00 L 64.00 142.00 L 64.00 141.00 L 63.00 140.00 L 62.00 140.00 L 61.00 139.00 L 61.00 138.00 L 55.00 132.00 L 55.00 131.00 L 53.00 129.00 L 53.00 124.00 L 51.00 122.00 L 51.00 113.00 L 50.00 112.00 L 50.00 89.00 L 51.00 88.00 L 51.00 84.00 L 50.00 83.00 L 50.00 80.00 L 48.00 78.00 L 48.00 66.00 L 50.00 64.00 L 57.00 64.00 L 58.00 63.00 L 62.00 63.00 L 64.00 61.00 L 67.00 61.00 L 68.00 60.00 L 69.00 60.00 L 70.00 59.00 L 73.00 59.00 L 75.00 57.00 L 79.00 57.00 L 80.00 56.00 L 81.00 56.00 L 83.00 54.00 L 85.00 54.00 L 87.00 52.00 L 90.00 52.00 L 92.00 50.00 L 95.00 50.00 L 96.00 49.00 L 97.00 49.00 L 98.00 48.00 L 101.00 48.00 L 102.00 47.00 L 121.00 47.00 L 122.00 48.00 L 123.00 48.00 L 124.00 49.00 L 128.00 49.00 L 130.00 51.00 L 131.00 51.00 L 133.00 53.00 L 133.00 54.00 L 134.00 54.00 L 137.00 57.00 L 138.00 57.00 L 140.00 59.00 L 140.00 60.00 L 144.00 60.00 L 144.00 55.00 L 145.00 54.00 L 145.00 49.00 L 146.00 48.00 L 146.00 47.00 L 149.00 44.00 L 149.00 43.00 L 150.00 42.00 L 150.00 41.00 L 152.00 39.00 L 152.00 38.00 L 154.00 36.00 L 154.00 35.00 L 158.00 31.00 L 158.00 30.00 L 165.00 23.00 L 166.00 23.00 L 168.00 21.00 L 168.00 20.00 L 171.00 17.00 L 172.00 17.00 L 176.00 13.00 L 176.00 11.00 L 178.00 9.00 L 179.00 9.00 L 179.00 7.00 L 180.00 6.00 L 180.00 2.00 L 181.00 1.00 L 185.00 1.00 L 185.00 0.00 Z"/>
  </g>
</svg>
